<?xml version="1.0" standalone="no"?>
<!DOCTYPE svg PUBLIC "-//W3C//DTD SVG 20010904//EN"
 "http://www.w3.org/TR/2001/REC-SVG-20010904/DTD/svg10.dtd">
<svg version="1.0" xmlns="http://www.w3.org/2000/svg"
 width="24.000000pt" height="24.000000pt" viewBox="0 0 24.000000 24.000000"
 preserveAspectRatio="xMidYMid meet">

<g transform="translate(0.000000,24.000000) scale(0.100000,-0.100000)"
fill="#000000" stroke="none">
<path d="M20 200 c0 -5 6 -10 13 -10 8 0 25 -27 40 -60 25 -59 26 -60 67 -60
37 0 42 3 56 35 25 61 22 65 -54 65 -55 0 -71 4 -85 20 -18 21 -37 26 -37 10z
m169 -80 c-10 -26 -16 -30 -50 -30 -33 0 -41 4 -49 26 -6 14 -10 27 -10 30 0
2 27 4 59 4 l60 0 -10 -30z"/>
<path d="M96 51 c-4 -5 -2 -12 3 -15 5 -4 12 -2 15 3 4 5 2 12 -3 15 -5 4 -12
2 -15 -3z"/>
<path d="M166 51 c-4 -5 -2 -12 3 -15 5 -4 12 -2 15 3 4 5 2 12 -3 15 -5 4
-12 2 -15 -3z"/>
</g>
</svg>
