<?xml version="1.0" standalone="no"?>
<!DOCTYPE svg PUBLIC "-//W3C//DTD SVG 20010904//EN"
 "http://www.w3.org/TR/2001/REC-SVG-20010904/DTD/svg10.dtd">
<svg version="1.0" xmlns="http://www.w3.org/2000/svg"
 width="24.000000pt" height="24.000000pt" viewBox="0 0 24.000000 24.000000"
 preserveAspectRatio="xMidYMid meet">

<g transform="translate(0.000000,24.000000) scale(0.100000,-0.100000)"
fill="#000000" stroke="none">
<path d="M24 187 c-3 -8 -4 -43 -2 -78 l3 -64 95 0 95 0 0 75 0 75 -93 3 c-72
2 -94 0 -98 -11z m101 -57 c5 0 21 9 35 20 28 22 40 25 40 10 0 -5 -18 -22
-40 -36 l-40 -27 -40 27 c-22 14 -40 33 -40 42 0 11 8 9 37 -11 21 -14 42 -25
48 -25z"/>
</g>
</svg>
