<?xml version="1.0" standalone="no"?>
<!DOCTYPE svg PUBLIC "-//W3C//DTD SVG 20010904//EN"
 "http://www.w3.org/TR/2001/REC-SVG-20010904/DTD/svg10.dtd">
<svg version="1.0" xmlns="http://www.w3.org/2000/svg"
 width="24.000000pt" height="24.000000pt" viewBox="0 0 24.000000 24.000000"
 preserveAspectRatio="xMidYMid meet">

<g transform="translate(0.000000,24.000000) scale(0.100000,-0.100000)"
fill="#000000" stroke="none">
<path d="M32 188 c-16 -16 -16 -120 0 -136 16 -16 160 -16 176 0 16 16 16 120
0 136 -16 16 -160 16 -176 0z m60 -40 c27 -19 28 -19 65 7 21 14 39 21 41 15
5 -15 -12 -34 -51 -55 -33 -17 -34 -17 -70 6 -20 13 -37 32 -37 42 0 19 4 18
52 -15z"/>
</g>
</svg>
