<?xml version="1.0" standalone="no"?>
<!DOCTYPE svg PUBLIC "-//W3C//DTD SVG 20010904//EN"
 "http://www.w3.org/TR/2001/REC-SVG-20010904/DTD/svg10.dtd">
<svg version="1.0" xmlns="http://www.w3.org/2000/svg"
 width="1200.000000pt" height="675.000000pt" viewBox="0 0 1200.000000 675.000000"
 preserveAspectRatio="xMidYMid meet">

<g transform="translate(0.000000,675.000000) scale(0.100000,-0.100000)"
fill="#000000" stroke="none">
<path d="M17 6736 c-4 -9 8 -27 29 -45 41 -37 52 -78 31 -120 -8 -16 -21 -54
-28 -83 -7 -29 -16 -55 -19 -58 -12 -11 -30 -51 -30 -65 0 -9 21 -36 46 -61
44 -42 46 -46 34 -74 -11 -26 -9 -34 16 -75 24 -38 34 -45 61 -45 38 0 88 45
124 111 13 24 27 46 32 47 4 2 7 8 7 13 0 11 37 49 48 49 5 0 20 9 33 21 13
11 36 23 51 26 16 3 28 9 28 13 0 4 11 11 25 14 14 4 25 11 25 16 0 6 7 10 15
10 30 0 15 36 -23 55 -28 14 -33 19 -19 23 10 2 16 9 14 15 -4 14 49 67 68 67
8 0 15 7 15 15 0 9 8 19 18 22 9 4 19 9 22 12 3 3 21 15 40 26 39 21 69 53 70
73 0 9 -79 12 -364 12 -308 0 -365 -2 -369 -14z"/>
<path d="M1172 6738 c-23 -31 -52 -114 -47 -138 6 -29 -24 -93 -61 -128 -14
-13 -21 -28 -18 -34 4 -7 2 -8 -4 -4 -7 4 -12 2 -12 -4 0 -6 -36 -47 -81 -92
-67 -67 -109 -125 -109 -153 0 -11 19 -4 35 12 25 24 123 31 131 9 15 -40 -26
-98 -126 -178 -96 -76 -140 -97 -140 -65 0 17 31 62 59 86 13 12 30 33 38 48
12 23 12 29 -1 41 -12 12 -18 13 -29 3 -8 -6 -21 -9 -30 -6 -8 4 -31 0 -50 -9
-27 -11 -34 -19 -31 -33 7 -24 -20 -48 -42 -39 -15 6 -15 9 5 29 11 13 21 30
21 38 0 15 114 137 168 179 17 14 32 28 32 32 0 4 22 29 49 56 26 26 52 58 55
70 6 19 4 22 -18 22 -14 0 -26 -4 -26 -8 0 -13 -75 -43 -78 -32 -6 18 -30 10
-75 -24 -24 -19 -55 -37 -68 -41 -48 -14 -79 -30 -76 -40 2 -5 -5 -18 -15 -29
-10 -11 -18 -28 -18 -37 0 -10 -4 -21 -10 -24 -5 -3 -10 -25 -10 -48 0 -26
-10 -61 -26 -90 -14 -27 -23 -55 -20 -62 3 -8 0 -16 -7 -18 -7 -2 0 -10 16
-17 15 -7 27 -16 27 -19 -1 -14 -26 -38 -45 -43 -11 -3 -28 -9 -38 -13 -13 -5
-17 -2 -17 14 0 17 -6 21 -30 21 -19 0 -33 7 -40 20 -6 11 -21 20 -34 20 -13
0 -31 -9 -41 -20 -10 -11 -22 -20 -27 -20 -14 0 -65 -54 -72 -77 -4 -13 -12
-23 -17 -23 -5 0 -9 -10 -9 -22 0 -35 -16 -54 -32 -40 -11 9 -18 5 -32 -18 -9
-17 -26 -35 -37 -40 -10 -6 -19 -17 -19 -25 0 -8 -4 -15 -10 -15 -5 0 -25 -16
-45 -35 l-35 -36 0 -247 0 -247 25 30 c14 17 39 57 55 90 16 33 43 74 60 90
17 17 47 54 67 83 42 64 162 185 224 227 46 31 108 94 109 109 0 18 44 46 72
46 38 0 37 -17 -11 -126 -21 -49 -44 -114 -51 -144 -7 -30 -17 -60 -24 -65
-17 -15 -56 -73 -56 -83 0 -5 -9 -17 -21 -28 -34 -31 -49 -68 -42 -108 3 -20
10 -36 14 -36 22 0 5 -34 -36 -77 -35 -35 -45 -53 -45 -79 0 -18 4 -35 9 -38
4 -3 34 18 66 46 31 29 68 58 82 65 l25 13 -7 -53 c-9 -72 -35 -146 -63 -182
-24 -29 -109 -94 -125 -95 -11 0 -4 73 7 82 6 4 4 13 -4 23 -12 14 -18 11 -63
-32 -109 -106 -117 -116 -117 -149 0 -45 9 -64 31 -64 52 0 24 -82 -54 -158
-54 -51 -90 -71 -102 -52 -18 29 -25 0 -25 -104 0 -109 1 -116 25 -142 l25
-27 34 38 c19 20 39 34 45 30 6 -3 11 -32 11 -64 l0 -58 49 -33 c65 -45 75
-62 57 -99 -16 -31 -40 -41 -98 -41 -31 0 -45 -8 -80 -44 -24 -24 -49 -51 -56
-60 -9 -12 -12 -82 -10 -298 l3 -283 62 125 c33 69 64 136 68 150 4 14 25 48
46 76 22 28 39 54 39 58 0 4 16 27 35 50 30 37 35 50 35 97 1 30 8 70 18 90
17 37 73 111 104 138 10 9 18 20 18 26 0 7 11 22 25 35 14 13 25 28 25 33 0
19 42 67 59 67 10 0 36 -8 57 -17 45 -19 53 -22 94 -30 25 -4 35 0 62 30 88
94 146 197 133 237 -5 14 -21 19 -85 25 -75 7 -115 24 -90 40 5 3 10 0 11 -7
0 -7 4 -3 9 9 6 15 21 24 47 29 47 8 92 37 165 107 49 47 91 76 94 65 0 -2 7
2 15 8 8 6 26 14 42 18 15 3 27 13 27 20 0 8 5 16 12 18 8 3 8 13 -2 39 -7 18
-19 52 -27 73 -24 67 -10 108 63 181 59 60 67 65 106 65 24 0 70 -5 103 -11
33 -6 81 -14 106 -18 l46 -7 54 59 c74 81 176 182 224 220 21 18 51 44 66 60
15 15 32 27 38 27 6 0 11 9 11 20 0 35 16 21 26 -22 l9 -43 49 2 c55 2 95 32
124 92 14 31 14 36 -1 63 -24 41 -21 75 8 104 14 14 25 30 25 35 0 6 18 9 43
8 24 -2 48 1 55 5 18 11 15 -29 -3 -44 -9 -7 -13 -15 -10 -18 3 -3 -2 -14 -12
-24 -18 -20 -12 -34 12 -25 8 4 15 16 15 27 0 11 4 20 8 20 5 0 16 21 24 48
15 46 12 121 -7 178 -4 13 1 34 14 58 12 20 21 43 21 51 0 8 7 15 15 15 11 0
15 11 15 39 0 22 5 41 12 43 8 3 8 9 1 22 -11 20 -6 56 8 56 5 0 9 15 9 33 0
24 -10 45 -33 72 -31 35 -35 37 -73 31 -51 -9 -79 -35 -146 -136 -72 -107
-193 -200 -391 -299 -117 -57 -142 -81 -152 -141 -4 -22 -10 -40 -14 -40 -4 0
-13 -18 -20 -40 -7 -24 -23 -47 -39 -57 -15 -10 -29 -20 -32 -24 -3 -3 -26
-15 -52 -27 -29 -12 -49 -29 -53 -43 -4 -12 -13 -29 -19 -36 -27 -33 -88 -93
-95 -93 -5 0 -22 -31 -40 -69 -37 -80 -96 -165 -127 -182 -29 -15 -64 4 -64
35 0 24 -28 56 -50 56 -15 0 -67 -38 -107 -78 -15 -15 -45 -36 -66 -47 -22
-11 -40 -23 -39 -28 0 -4 3 -33 7 -65 5 -45 2 -66 -13 -102 -21 -50 -80 -104
-115 -107 -24 -2 -97 27 -97 40 0 4 -7 7 -16 7 -14 0 -16 8 -10 52 6 40 14 59
35 78 38 33 114 161 142 235 12 33 28 69 35 80 8 11 14 26 14 35 1 32 61 80
100 80 23 0 100 37 100 48 0 12 53 32 86 32 23 0 34 -6 38 -18 4 -11 18 -29
31 -42 25 -23 25 -23 25 -2 0 12 8 23 20 27 11 4 18 10 15 15 -3 5 -1 11 5 15
5 3 10 14 10 23 0 9 12 40 27 68 36 69 28 88 -33 78 -41 -6 -48 -4 -74 21
l-28 27 18 31 c11 18 40 50 66 71 56 47 67 43 104 -31 24 -48 26 -50 50 -40
32 14 99 86 106 115 3 12 10 22 15 22 5 0 9 9 9 19 0 11 4 22 9 25 13 8 20 56
9 62 -5 3 -17 -1 -27 -10 -11 -10 -35 -16 -64 -16 -49 0 -65 18 -52 59 4 13
-1 27 -15 41 -12 12 -20 30 -17 40 8 32 -10 43 -72 48 l-61 4 0 33 c0 18 11
49 25 69 14 20 25 41 25 46 0 12 59 56 87 64 12 4 24 2 28 -4 3 -5 14 -10 24
-10 19 0 61 -40 61 -58 0 -14 21 -16 35 -4 6 4 28 5 50 1 22 -3 34 -7 27 -8
-19 -2 -4 -21 17 -21 20 0 138 57 146 71 9 14 45 11 45 -4 0 -7 -10 -24 -22
-36 -14 -16 -21 -37 -22 -66 -2 -82 32 -72 82 25 42 82 42 110 2 110 -28 0
-30 2 -30 40 0 36 -2 40 -26 40 -14 0 -33 -4 -42 -9 -26 -13 -77 -20 -89 -13
-9 5 -9 17 0 43 11 37 71 89 102 89 9 0 27 11 41 25 14 14 30 25 36 25 5 0 23
11 40 25 33 28 48 32 48 11 0 -24 36 -28 73 -8 46 25 137 107 137 124 0 4
-195 8 -434 8 -335 0 -436 -3 -444 -12z m398 -18 c0 -6 -10 -15 -22 -21 -13
-5 -33 -25 -45 -44 -13 -19 -32 -39 -43 -45 -23 -12 -27 2 -5 20 8 6 17 21 21
32 13 42 94 91 94 58z m-930 -679 c0 -10 -11 -23 -25 -29 -21 -10 -25 -9 -25
5 0 21 30 54 41 47 5 -3 9 -13 9 -23z m-4 -603 c4 -6 2 -14 -5 -16 -11 -4 -11
-6 0 -13 10 -6 11 -11 3 -16 -17 -12 -41 -64 -49 -104 -7 -38 -58 -95 -75 -84
-13 8 -12 60 3 108 11 34 92 135 109 137 4 0 10 -5 14 -12z m335 -488 c15 -8
19 -22 19 -61 0 -78 -10 -89 -80 -89 l-60 0 0 30 c0 39 25 99 48 116 21 16 47
17 73 4z m-350 -210 c10 -6 19 -17 19 -25 0 -8 3 -15 8 -15 8 0 32 -48 32 -64
0 -5 -7 -18 -17 -28 -9 -10 -21 -26 -27 -36 -6 -10 -26 -41 -44 -68 -18 -27
-31 -57 -28 -66 3 -12 -18 -38 -66 -80 -84 -76 -85 -77 -125 -71 -23 4 -51 24
-93 65 -33 32 -60 64 -60 71 0 7 -3 21 -6 32 -3 14 5 34 26 60 18 22 41 53 53
69 12 15 33 38 46 50 14 11 33 29 43 39 10 9 25 17 34 17 9 0 18 9 21 20 3 11
14 20 24 20 11 0 19 5 19 10 0 13 116 13 141 0z"/>
<path d="M2060 6710 c0 -20 -3 -52 -6 -69 -5 -24 -3 -31 10 -31 9 0 16 -4 16
-9 0 -5 10 -11 23 -14 12 -3 36 -11 52 -17 20 -8 48 -10 77 -6 41 6 49 11 68
47 11 23 18 49 15 58 -3 9 2 26 10 37 32 42 23 45 -125 43 l-140 -1 0 -38z"/>
<path d="M2750 6741 c0 -15 18 -23 68 -28 26 -2 67 -13 91 -24 24 -10 66 -19
92 -19 29 0 68 -9 95 -21 l45 -22 29 22 c16 11 34 21 39 21 15 0 89 53 95 68
4 9 -54 12 -274 12 -168 0 -280 -4 -280 -9z"/>
<path d="M4503 6657 c-34 -52 -67 -106 -74 -120 -7 -15 -16 -27 -21 -27 -4 0
-8 -5 -8 -10 0 -15 -79 -120 -89 -120 -5 0 -12 -15 -15 -32 -6 -32 -17 -53
-103 -212 -21 -38 -44 -81 -52 -95 -8 -14 -35 -55 -61 -91 -26 -36 -56 -83
-67 -105 -11 -22 -38 -67 -59 -99 -21 -32 -44 -66 -49 -75 -26 -41 -73 -114
-134 -208 -36 -56 -86 -136 -110 -178 -43 -75 -43 -77 -25 -95 23 -22 55 -32
71 -22 6 4 30 41 53 82 43 76 78 128 138 202 18 23 43 60 54 82 11 23 31 56
45 74 13 18 34 54 45 80 12 26 48 80 80 119 32 40 70 98 84 130 16 35 50 83
88 123 34 36 81 99 104 140 23 41 60 95 82 120 50 54 74 91 125 190 22 41 42
77 46 80 3 3 9 14 13 26 3 11 22 46 40 77 l35 57 -88 0 -87 0 -61 -93z"/>
<path d="M5157 6696 c-15 -33 -33 -57 -46 -61 -12 -3 -21 -11 -21 -16 0 -5 -5
-9 -11 -9 -6 0 -25 -11 -43 -25 -18 -14 -40 -25 -48 -25 -16 0 -88 -73 -88
-89 0 -5 -2 -16 -5 -23 -6 -16 33 -38 65 -38 31 0 74 45 93 98 21 58 51 94 72
86 8 -4 15 -2 15 3 0 5 18 17 41 27 22 10 44 28 49 41 5 13 14 26 19 30 6 3
11 17 11 31 0 21 -4 24 -39 24 -38 0 -40 -2 -64 -54z"/>
<path d="M7058 6728 c-35 -64 -45 -117 -27 -146 9 -14 6 -23 -18 -49 -16 -17
-33 -48 -38 -68 -8 -29 -19 -42 -49 -59 -50 -27 -56 -31 -114 -87 -40 -40
-102 -125 -102 -141 0 -3 14 -19 30 -36 17 -18 30 -39 30 -48 0 -17 -39 -58
-133 -139 -80 -68 -97 -104 -97 -205 0 -105 -18 -150 -58 -150 -16 0 -35 7
-42 15 -7 8 -18 15 -25 15 -8 0 -15 5 -17 11 -2 6 -34 13 -71 16 -76 6 -80 11
-91 85 -4 26 -16 58 -27 71 -36 46 -21 87 30 87 10 0 30 17 43 38 14 20 42 54
62 74 41 42 46 74 16 106 -32 34 -69 28 -118 -19 -24 -22 -49 -38 -55 -36 -7
2 -13 26 -15 54 -2 41 1 56 21 79 35 42 47 69 47 102 0 41 -19 45 -81 14 -39
-20 -64 -42 -91 -81 -47 -67 -49 -100 -8 -124 35 -21 37 -38 10 -77 -14 -19
-19 -37 -15 -53 7 -28 -6 -41 -34 -32 -16 5 -50 60 -65 108 -4 12 -16 17 -43
17 -42 0 -65 13 -129 71 -96 86 -158 86 -289 -1 -22 -15 -62 -35 -88 -45 -53
-20 -83 -61 -73 -101 8 -30 -28 -69 -74 -81 -39 -10 -52 -40 -23 -49 118 -37
146 -86 68 -118 -19 -8 -35 -19 -35 -23 1 -16 54 -46 82 -46 44 0 112 54 119
95 9 56 16 61 73 54 33 -4 69 -1 101 8 28 8 72 16 99 17 l49 3 19 -54 c15 -44
16 -61 7 -87 -6 -18 -15 -33 -20 -33 -5 0 -9 -13 -9 -29 0 -21 -13 -41 -47
-76 -55 -54 -81 -67 -117 -57 -34 9 -115 78 -126 108 -9 22 -15 24 -85 24 -45
0 -90 -6 -112 -15 -48 -20 -113 -19 -139 3 -42 35 -57 69 -46 102 6 17 14 57
18 90 6 58 6 60 -20 70 -15 5 -43 10 -61 10 -28 0 -37 6 -50 30 -9 17 -19 30
-23 30 -15 0 -32 -24 -32 -46 0 -24 74 -160 109 -200 34 -39 27 -66 -24 -98
-44 -28 -55 -48 -35 -61 6 -3 10 -11 10 -16 0 -12 -63 -73 -106 -103 -14 -10
-32 -34 -40 -52 -9 -22 -28 -41 -55 -54 -31 -16 -46 -33 -65 -73 -13 -29 -24
-60 -24 -70 0 -23 -28 -77 -40 -77 -5 0 -12 -10 -16 -22 -4 -13 -10 -25 -14
-28 -12 -9 -60 -122 -60 -141 0 -11 -4 -19 -10 -19 -5 0 -10 -7 -10 -16 0 -21
-69 -85 -88 -82 -19 4 -26 -40 -11 -69 7 -12 26 -27 44 -33 17 -6 49 -26 71
-46 21 -20 52 -43 69 -51 16 -9 43 -26 58 -39 16 -13 36 -24 45 -24 14 0 127
-64 252 -142 69 -43 189 -98 240 -109 82 -19 373 -3 470 26 93 27 256 5 407
-55 91 -37 120 -58 115 -85 -14 -69 -242 -241 -416 -314 -39 -16 -83 -36 -98
-43 l-26 -14 57 -63 c64 -72 64 -72 161 -17 61 35 233 120 380 189 52 24 106
57 120 72 14 14 25 27 24 28 -1 1 -11 22 -24 47 -13 25 -33 59 -46 75 -12 17
-26 42 -29 58 -8 31 -9 31 107 27 65 -2 67 -1 74 25 4 15 4 51 0 81 -11 95 20
316 62 434 8 25 41 99 72 165 32 66 61 131 65 145 4 14 11 27 14 30 8 6 148
189 171 223 8 12 36 48 62 80 47 57 61 90 36 86 -7 -2 -26 0 -43 3 -16 4 -51
10 -77 13 -27 3 -48 10 -48 15 0 18 94 64 168 81 58 14 84 26 111 52 20 19 59
42 86 52 118 43 175 82 175 123 0 27 -34 62 -60 62 -9 0 -19 3 -23 6 -3 3 -41
7 -84 8 -81 3 -224 33 -243 52 -7 7 1 32 26 81 30 62 34 76 26 105 -5 19 -5
43 0 57 4 13 11 85 14 160 3 74 9 138 15 142 5 3 7 12 4 21 -8 20 8 58 39 91
32 35 56 80 56 107 0 17 -6 20 -40 20 -30 0 -42 -5 -52 -22z m-1070 -977 c32
-49 26 -66 -26 -65 -48 1 -82 26 -82 60 0 54 72 57 108 5z m-794 -194 c41 -53
31 -107 -19 -107 -27 0 -53 28 -65 70 -20 71 39 97 84 37z m746 -72 c10 -12 7
-16 -16 -25 -24 -9 -31 -8 -41 6 -7 10 -13 21 -13 26 0 14 57 9 70 -7z m418
-155 c66 -63 74 -83 43 -100 -30 -16 -50 -12 -76 14 -24 24 -59 121 -49 137 9
16 18 10 82 -51z m-594 4 c40 -15 3 -90 -55 -114 -65 -28 -82 29 -25 86 34 34
50 39 80 28z m379 -209 c10 -11 22 -31 28 -44 12 -30 0 -44 -56 -63 -95 -33
-175 41 -110 102 55 52 95 53 138 5z m-340 -57 c-2 -40 -45 -140 -79 -182 -26
-34 -33 -37 -67 -33 -26 4 -44 0 -59 -13 -16 -13 -33 -16 -56 -13 -18 3 -51 0
-72 -7 -32 -11 -42 -11 -55 0 -21 17 -10 29 93 97 47 31 98 68 114 82 53 47
143 101 163 99 15 -2 20 -10 18 -30z m615 -200 c-5 -15 -35 -34 -43 -27 -3 4
-3 14 1 23 7 18 48 23 42 4z m-1213 -98 c-3 -5 -15 -10 -26 -10 -10 0 -19 5
-19 10 0 6 12 10 26 10 14 0 23 -4 19 -10z m700 -35 c44 -9 97 -18 118 -22 45
-7 44 -18 -6 -47 -31 -18 -40 -19 -57 -8 -28 17 -46 15 -104 -12 -40 -19 -72
-25 -146 -27 -93 -4 -95 -3 -98 19 -8 55 72 110 163 111 28 0 86 -6 130 -14z"/>
<path d="M7995 6704 c-16 -25 -34 -53 -40 -63 -5 -9 -20 -30 -31 -46 -12 -17
-31 -51 -42 -77 -12 -27 -25 -48 -29 -48 -13 0 -32 -100 -20 -107 5 -3 3 -9
-4 -14 -10 -6 -10 -9 -2 -9 6 0 18 8 25 18 7 10 21 21 31 25 9 3 17 16 17 27
0 11 6 20 13 20 8 0 24 11 36 24 13 13 34 27 47 30 13 4 24 11 24 16 0 6 9 10
19 10 12 0 22 9 26 23 4 12 21 44 37 71 16 27 31 57 33 67 2 9 11 31 19 48
l17 31 -73 0 -73 -1 -30 -45z"/>
<path d="M8830 6683 c-7 -37 -18 -71 -24 -75 -6 -4 -29 -8 -52 -8 -65 0 -98
-51 -80 -125 13 -52 28 -85 45 -98 9 -7 27 -25 41 -41 l25 -29 -37 27 c-21 16
-42 25 -49 20 -8 -5 -9 -3 -4 6 5 9 4 11 -3 6 -7 -4 -12 -14 -12 -22 0 -8 -4
-14 -10 -14 -5 0 -10 -9 -10 -20 0 -21 -20 -29 -20 -7 0 7 -5 5 -11 -5 -5 -10
-16 -15 -24 -11 -9 3 -21 0 -29 -6 -7 -6 -16 -8 -19 -4 -4 3 -7 -6 -7 -20 0
-15 -6 -27 -12 -27 -20 0 -37 -44 -23 -57 24 -22 54 -23 103 -5 l50 19 6 -31
c8 -46 8 -366 0 -415 -6 -35 -10 -42 -25 -38 -15 4 -17 2 -10 -11 11 -19 100
-25 149 -10 l32 10 0 81 c0 45 3 160 7 255 l6 172 45 28 c25 15 60 42 78 59
31 32 72 53 97 53 8 -1 6 -5 -3 -13 -9 -7 -15 -19 -15 -27 1 -8 -2 -19 -6 -25
-3 -5 -9 -28 -12 -50 -4 -22 -9 -52 -13 -66 -5 -23 -1 -28 44 -47 63 -27 141
-44 184 -40 35 3 38 9 106 237 9 29 42 98 74 153 32 55 55 104 52 109 -3 5 -1
9 4 9 9 0 112 151 112 164 0 3 -28 6 -63 6 -61 0 -63 -1 -81 -35 -25 -45 -107
-123 -169 -159 -109 -64 -501 -204 -513 -184 -7 12 -8 11 41 30 l40 16 5 110
c3 61 8 113 11 116 3 4 21 -14 40 -38 19 -25 36 -46 39 -46 4 0 12 16 19 36
17 47 29 34 43 -49 6 -37 15 -64 19 -61 15 9 9 85 -14 174 l-22 85 -66 3 -67
3 -12 -68z"/>
<path d="M9215 6720 c-9 -16 -19 -30 -24 -30 -5 0 -11 -13 -14 -30 -4 -18 -13
-30 -22 -30 -9 0 -18 -7 -21 -15 -4 -8 -10 -12 -15 -9 -16 9 -33 -7 -18 -18
10 -7 5 -8 -15 -3 -26 5 -28 4 -17 -9 11 -13 11 -16 -3 -16 -10 0 -14 -5 -10
-11 3 -6 17 -8 31 -4 14 3 30 1 37 -4 17 -14 127 29 189 74 44 33 107 107 107
127 0 4 -43 8 -95 8 l-94 0 -16 -30z m-69 -163 c3 -21 3 -20 -31 -3 -23 12
-24 15 -8 19 27 7 36 3 39 -16z"/>
<path d="M10246 6703 c-10 -27 -24 -68 -32 -93 -21 -71 -61 -180 -68 -187 -3
-4 -6 -14 -6 -23 0 -10 -7 -24 -16 -31 -16 -13 -35 -51 -38 -79 -13 -94 -38
-152 -73 -171 -31 -17 -83 -81 -128 -157 -43 -74 -64 -88 -107 -73 -17 6 -34
8 -37 5 -7 -7 28 -34 45 -34 23 0 99 -38 129 -65 28 -25 29 -27 12 -40 -22
-16 -11 -21 64 -31 27 -4 56 -12 62 -18 7 -6 25 -21 41 -32 20 -15 29 -30 30
-51 1 -29 0 -30 -28 -22 -16 5 -34 13 -39 18 -14 14 2 33 24 26 10 -4 19 -2
19 3 0 5 -30 21 -68 35 -68 27 -112 34 -112 19 0 -15 44 -51 81 -66 49 -20 68
-66 29 -66 -23 0 -25 -8 -6 -32 8 -11 27 -18 49 -18 20 0 48 -5 62 -12 29 -13
34 -48 8 -48 -15 0 -15 -3 4 -18 29 -22 22 -66 -9 -56 -16 5 -18 3 -12 -7 5
-8 7 -22 6 -31 -4 -21 -6 -21 35 -9 27 8 32 6 36 -11 4 -12 10 -17 18 -13 7 5
10 3 7 -6 -7 -21 -37 -23 -58 -4 -11 10 -20 12 -24 7 -3 -6 0 -13 6 -15 8 -3
6 -6 -4 -6 -11 -1 -18 -9 -18 -20 0 -18 3 -19 29 -10 24 8 37 6 70 -10 22 -12
47 -18 55 -15 18 7 20 0 6 -26 -5 -10 -21 -21 -34 -24 -17 -4 -23 -11 -20 -21
4 -9 1 -15 -7 -15 -10 0 -10 -3 -1 -12 16 -16 15 -31 -2 -25 -24 9 -26 -4 -6
-31 26 -32 25 -37 -5 -38 -14 -1 -25 2 -25 7 0 5 4 9 9 9 5 0 4 11 -2 24 -7
13 -16 22 -20 19 -5 -3 -13 1 -18 8 -6 10 -9 5 -10 -16 -1 -16 -3 -23 -6 -14
-2 10 -13 19 -23 22 -11 3 -24 17 -30 31 -9 23 -12 25 -30 14 -24 -15 -26 -28
-5 -28 8 0 15 -4 15 -9 0 -4 -27 -7 -60 -7 -34 1 -54 -2 -46 -6 7 -4 17 -24
20 -43 4 -21 13 -35 21 -35 18 0 20 -17 3 -22 -7 -3 -13 -15 -13 -29 0 -18 -5
-24 -22 -23 -13 0 -24 -7 -26 -18 -3 -10 -1 -18 4 -18 5 0 9 4 9 8 0 4 9 8 20
8 11 0 20 -4 20 -8 0 -14 -35 -25 -55 -17 -11 4 -22 8 -25 8 -11 2 -5 -48 7
-60 10 -10 17 -8 31 9 22 25 42 29 42 7 0 -20 9 -19 33 3 19 16 19 16 13 -5
-5 -14 -3 -23 3 -23 6 0 11 -5 11 -11 0 -6 -7 -8 -17 -5 -9 4 -20 1 -25 -6 -5
-9 -8 -8 -8 6 0 14 -3 16 -13 7 -10 -8 -17 -7 -26 2 -10 9 -14 8 -22 -5 -13
-23 -31 -23 -27 -2 2 10 -3 19 -11 22 -10 3 -12 0 -8 -11 3 -9 -1 -21 -8 -27
-11 -9 -18 -8 -30 4 -20 20 -26 20 -19 1 4 -8 2 -15 -3 -15 -16 0 -13 48 3 54
8 3 12 10 9 16 -4 7 -17 4 -36 -7 -32 -19 -36 -28 -16 -37 10 -5 10 -7 0 -12
-7 -3 -13 -10 -13 -15 0 -6 5 -7 10 -4 6 3 10 0 10 -9 0 -8 13 -17 30 -21 26
-6 28 -9 19 -26 -5 -11 -14 -17 -19 -14 -6 3 -16 2 -22 -2 -12 -7 -14 -16 -21
-85 -1 -14 -5 -24 -9 -21 -13 7 -9 -32 4 -45 25 -25 -1 -22 -28 3 -28 26 -42
21 -30 -10 3 -9 12 -12 23 -9 14 5 15 4 4 -4 -8 -6 -20 -8 -27 -5 -13 5 -20
-14 -26 -67 -2 -14 -7 -23 -12 -22 -5 2 -12 -2 -17 -10 -5 -8 -2 -15 9 -19 20
-7 41 17 42 46 0 17 2 17 10 5 8 -12 10 -8 11 15 1 18 3 23 6 12 3 -11 11 -16
19 -13 22 8 17 -12 -6 -24 -11 -6 -18 -15 -15 -21 4 -5 11 -7 16 -4 5 4 9 2 9
-4 0 -12 -28 -41 -41 -41 -14 0 -11 -26 4 -28 16 -2 69 -13 85 -18 11 -3 10
-8 -3 -20 -12 -12 -13 -19 -5 -24 6 -4 11 -10 11 -14 -3 -21 1 -27 14 -22 19
7 19 1 -1 -29 -9 -13 -13 -29 -9 -34 3 -7 0 -8 -9 -5 -11 4 -19 -2 -25 -18
-10 -26 -59 -88 -69 -88 -4 0 -8 11 -8 24 -2 20 4 26 27 31 33 7 32 6 19 39
-7 20 -6 27 8 35 15 9 14 10 -5 11 -12 0 -24 4 -27 8 -3 5 8 7 23 4 24 -3 29
0 34 25 7 36 3 39 -28 19 -14 -9 -25 -12 -25 -7 0 6 -7 8 -15 5 -8 -4 -15 -3
-15 1 0 3 7 13 15 21 13 14 15 13 15 -3 1 -17 2 -17 16 2 8 11 17 19 19 18 18
-10 15 0 -3 13 -13 9 -32 14 -43 11 -10 -3 -17 -1 -13 4 3 5 0 9 -6 9 -6 0 -9
4 -6 9 3 5 0 13 -7 19 -18 15 -46 -9 -57 -49 -12 -42 5 -64 19 -26 6 15 15 27
20 27 6 0 8 -7 5 -15 -4 -8 -2 -15 4 -15 5 0 12 -11 14 -25 6 -27 -1 -32 -20
-13 -9 9 -12 8 -12 -4 0 -9 -7 -29 -16 -44 l-16 -29 5 28 c5 30 -2 34 -22 15
-11 -11 -13 -10 -8 5 8 20 -1 21 -26 3 -19 -14 -63 -133 -53 -143 9 -9 34 16
39 40 3 15 5 12 6 -10 1 -22 6 -33 16 -33 23 0 18 -13 -15 -35 -16 -11 -30
-26 -30 -34 0 -8 -6 -11 -16 -7 -8 3 -12 2 -9 -4 3 -6 -1 -10 -10 -10 -8 0
-18 7 -21 15 -4 8 -10 15 -14 15 -18 0 -110 -64 -110 -76 0 -7 -14 -25 -31
-41 -17 -15 -42 -38 -55 -51 -26 -25 -84 -41 -84 -24 0 6 -7 9 -16 5 -14 -5
-15 -3 -5 15 7 12 14 22 17 22 3 0 2 -4 -1 -10 -3 -5 -2 -10 4 -10 5 0 17 -3
27 -7 13 -5 16 -3 11 10 -3 8 -1 18 6 21 9 3 8 7 -2 14 -11 8 -10 11 7 16 12
4 19 13 16 20 -6 16 28 18 38 2 5 -7 8 -7 8 3 0 7 6 11 15 7 10 -4 15 1 15 15
0 11 -4 17 -10 14 -6 -3 -10 5 -10 19 0 16 7 27 20 31 15 5 20 14 18 33 -2 20
2 27 21 32 28 6 41 30 17 30 -9 0 -16 -5 -16 -11 0 -5 -4 -7 -10 -4 -5 3 -15
1 -22 -4 -61 -49 -87 -74 -84 -80 3 -4 -15 -28 -39 -54 -33 -34 -49 -45 -62
-40 -15 6 -16 4 -6 -9 15 -17 8 -28 -19 -28 -10 0 -18 -5 -18 -11 0 -6 7 -9
15 -5 17 6 16 -16 -2 -49 -6 -11 -14 -34 -17 -50 -4 -19 -13 -31 -24 -32 -14
-1 -17 7 -16 40 1 23 5 50 9 59 12 30 -3 36 -73 34 -79 -4 -87 -6 -47 -15 19
-4 31 -13 33 -26 7 -43 14 -51 23 -27 4 12 13 22 19 22 13 0 13 -17 0 -25 -8
-5 -8 -11 -1 -19 11 -13 5 -26 -11 -26 -5 0 -7 4 -4 9 3 5 -3 11 -15 14 -12 3
-22 0 -26 -9 -3 -8 -9 -14 -15 -14 -5 0 -6 4 -3 10 9 14 -5 80 -18 80 -5 0
-16 8 -23 17 -7 10 -15 16 -18 13 -9 -9 6 -90 16 -84 5 3 6 14 3 25 -4 10 -2
19 3 19 12 0 22 -37 15 -55 -8 -22 -68 -64 -81 -56 -7 4 -8 19 -3 44 11 48 -5
49 -39 3 -14 -19 -28 -32 -31 -30 -14 8 -50 -29 -46 -47 3 -11 1 -19 -3 -19
-5 0 -16 -7 -24 -16 -15 -14 -16 -14 -16 1 0 14 -6 16 -27 10 -16 -3 -42 -9
-60 -12 -17 -3 -34 -11 -37 -19 -6 -16 15 -19 30 -4 16 16 43 2 37 -20 -3 -10
-10 -17 -17 -14 -17 6 -50 -32 -43 -50 4 -10 -3 -14 -27 -14 -18 0 -39 4 -47
9 -11 7 -11 9 2 9 25 0 44 29 45 67 1 34 -10 44 -20 18 -3 -8 0 -15 6 -15 7 0
6 -5 -2 -15 -7 -8 -19 -15 -27 -15 -21 0 -43 -25 -43 -49 0 -19 -3 -19 -27 -9
-16 7 -34 17 -42 22 -14 11 -61 16 -61 7 0 -3 20 -26 45 -51 l44 -45 -25 -12
c-22 -10 -25 -10 -20 3 10 25 -9 56 -43 70 l-32 14 3 -32 c2 -26 -2 -35 -22
-45 -13 -6 -27 -8 -30 -4 -3 5 -14 11 -25 13 -11 2 -19 10 -18 16 2 7 -2 12
-7 12 -6 0 -10 -4 -10 -10 0 -5 -5 -10 -11 -10 -6 0 -9 9 -6 20 7 26 -5 26
-21 -1 -8 -12 -19 -18 -28 -15 -8 3 -12 2 -9 -3 3 -5 -4 -16 -16 -24 -11 -8
-16 -18 -11 -21 5 -3 15 1 22 9 7 8 17 15 22 15 6 0 4 -8 -3 -17 -12 -15 -12
-16 6 -9 14 5 11 -1 -10 -19 -16 -15 -31 -21 -33 -16 -2 6 -11 11 -20 11 -13
0 -14 2 -3 9 10 7 8 12 -10 25 -20 14 -22 18 -9 26 11 7 11 10 2 10 -7 0 -25
-11 -40 -25 -27 -25 -27 -25 -4 -25 13 0 21 4 18 9 -4 5 3 7 14 4 19 -5 20 -6
3 -19 -20 -15 -53 -19 -54 -6 -3 28 -10 44 -28 63 -12 13 -21 27 -21 32 0 5
-7 6 -16 3 -14 -5 -15 -4 -5 8 10 12 17 13 32 3 14 -9 21 -9 31 2 10 11 10 12
1 7 -12 -7 -19 19 -14 48 1 5 -5 6 -14 2 -9 -3 -23 -6 -31 -6 -8 0 -14 -9 -14
-20 0 -11 -7 -20 -15 -20 -8 0 -15 5 -15 10 0 6 -7 10 -16 8 -10 -2 -19 3 -21
10 -3 6 2 12 11 12 9 0 16 8 16 18 0 14 -6 17 -33 14 -22 -2 -38 2 -46 12 -11
14 -11 16 5 17 18 0 18 1 -1 9 -11 5 -29 8 -40 8 -15 0 -16 -1 -3 -5 19 -5 29
-39 22 -73 -5 -20 -3 -22 5 -10 9 13 11 13 11 -2 0 -11 6 -16 20 -13 26 5 38
-15 13 -21 -11 -3 -23 -19 -29 -37 -5 -18 -14 -32 -21 -32 -6 0 -15 -3 -19 -8
-4 -4 0 -7 9 -7 10 0 17 -4 17 -10 0 -5 -7 -7 -15 -4 -8 4 -15 2 -15 -4 0 -5
-6 -12 -14 -15 -11 -5 -13 0 -6 24 8 26 6 31 -16 39 -33 13 -32 14 -29 -15 2
-14 -1 -25 -6 -25 -5 0 -9 7 -9 15 0 8 -7 15 -15 15 -8 0 -15 5 -15 10 0 6 7
10 15 10 8 0 15 5 15 11 0 5 -4 8 -9 5 -5 -4 -7 3 -4 14 3 11 2 20 -2 20 -13
0 -34 -34 -35 -53 0 -28 -24 -46 -55 -43 -19 3 -29 -2 -32 -14 -5 -19 -41 -20
-53 -1 -4 8 -12 11 -17 8 -5 -3 -9 3 -10 13 -1 11 2 22 8 25 5 4 9 11 9 18 0
6 -7 1 -16 -11 -10 -15 -20 -20 -27 -15 -7 5 -30 15 -52 22 -22 7 -49 24 -61
37 -11 14 -32 26 -45 28 -37 4 -46 12 -59 54 -18 53 -24 56 -64 30 -37 -24
-57 -59 -37 -66 6 -2 11 -22 11 -45 0 -58 16 -84 80 -134 74 -58 101 -69 116
-48 21 29 45 13 66 -42 25 -67 62 -98 151 -125 97 -29 158 -55 172 -75 9 -11
14 -13 19 -4 5 8 15 6 35 -8 17 -12 36 -18 49 -14 14 3 22 1 22 -7 0 -7 8 -9
20 -5 21 7 103 -33 95 -46 -3 -4 2 -15 11 -24 15 -15 17 -14 30 2 13 17 15 17
33 -4 27 -32 43 -29 85 17 30 34 36 47 35 83 -1 24 8 67 22 102 26 65 55 88
122 98 36 6 37 5 37 -25 0 -16 -16 -58 -35 -92 -22 -40 -35 -76 -35 -99 0 -34
2 -36 28 -33 15 1 36 8 47 14 14 7 26 7 38 1 13 -8 17 -6 17 6 0 9 4 14 9 11
5 -4 11 0 14 6 4 15 137 19 137 4 0 -5 6 -4 13 2 8 6 34 6 77 0 36 -5 74 -11
85 -12 35 -5 99 -27 146 -52 25 -13 49 -21 52 -17 4 3 13 1 20 -5 8 -7 16 -10
18 -8 2 2 19 6 37 9 30 6 34 4 43 -23 7 -19 24 -36 53 -49 44 -22 72 -28 46
-11 -13 9 -13 11 0 20 24 15 50 12 50 -7 0 -13 3 -14 12 -5 8 8 9 18 1 35 -10
22 -9 24 10 21 12 -2 31 -5 41 -6 11 -2 34 -19 52 -38 19 -19 43 -45 56 -58
25 -26 107 -82 120 -82 29 0 -35 109 -80 135 -28 17 -74 83 -78 114 -3 19 7
42 16 36 4 -2 18 7 30 20 67 72 224 56 319 -33 42 -39 50 -43 91 -40 41 3 45
5 50 33 5 28 8 30 45 30 52 -1 65 4 65 22 0 11 6 8 19 -8 l18 -23 -5 34 c-2
18 -1 31 4 28 5 -2 22 -10 37 -18 23 -11 35 -12 70 -1 23 6 52 14 64 16 12 2
37 11 55 20 49 25 186 35 250 19 29 -8 68 -14 88 -14 36 1 140 23 158 34 6 3
35 7 66 9 54 4 55 3 50 -20 -4 -13 -1 -30 6 -38 7 -9 10 -18 6 -22 -9 -9 -35
28 -36 50 0 22 -62 24 -80 2 -7 -8 -37 -22 -67 -31 -30 -9 -63 -24 -73 -34
-24 -24 -51 -76 -43 -83 3 -3 -21 -32 -54 -64 -58 -56 -78 -95 -85 -163 -4
-31 -15 -40 -50 -40 -27 0 -66 -40 -81 -82 -9 -26 -29 -14 -72 43 -60 80 -109
89 -167 33 -21 -19 -38 -44 -38 -55 0 -23 4 -24 24 -3 15 14 16 13 15 -13 0
-15 -4 -37 -8 -48 -5 -11 -4 -33 0 -49 5 -16 7 -32 4 -34 -10 -11 -58 11 -62
28 -7 27 -28 25 -67 -5 -21 -16 -39 -22 -54 -18 -17 4 -22 1 -23 -13 0 -16 -2
-15 -12 5 -9 19 -9 25 1 29 19 6 14 22 -8 22 -13 0 -20 7 -20 19 0 20 -27 48
-37 38 -9 -9 -39 33 -51 73 -13 39 -12 55 6 86 6 12 8 24 4 28 -9 9 15 24 61
36 30 9 37 15 37 35 0 17 6 25 18 25 15 0 52 32 52 44 0 2 -13 -1 -30 -7 -25
-9 -35 -8 -60 6 l-30 18 -19 -44 c-19 -44 -65 -87 -94 -87 -28 0 -31 -23 -6
-43 22 -17 22 -19 4 -17 -41 5 -44 2 -32 -30 6 -16 18 -30 27 -31 9 0 7 -3 -6
-9 -46 -18 -30 -60 24 -60 16 0 21 -8 24 -39 3 -35 -1 -43 -27 -64 -55 -44
-144 -21 -149 38 -1 6 -11 14 -24 20 -12 5 -25 18 -28 27 -7 23 -30 23 -43 1
-7 -14 -9 -6 -8 31 2 46 0 50 -27 59 -27 9 -32 7 -58 -24 -15 -18 -28 -39 -28
-47 0 -7 -15 -19 -32 -27 -28 -11 -37 -11 -60 1 -18 9 -28 11 -28 4 0 -15 -34
-4 -78 27 -50 33 -51 36 -11 20 18 -7 40 -13 47 -11 6 1 17 2 22 3 6 0 10 24
10 52 l0 52 -49 -7 c-48 -6 -49 -6 -44 16 10 39 24 48 77 48 49 1 50 1 26 15
-14 8 -33 14 -42 15 -9 0 -29 13 -45 28 -69 69 -94 67 -143 -10 -53 -83 -57
-100 -29 -139 20 -28 20 -30 3 -22 -10 6 -25 8 -31 6 -7 -3 -13 -1 -13 4 0 5
-18 19 -39 32 -38 21 -41 21 -60 4 -12 -10 -21 -23 -21 -30 0 -7 -9 -13 -20
-13 -11 0 -29 -9 -41 -21 l-20 -20 -35 30 c-41 37 -42 37 -52 11 -7 -19 -10
-17 -35 20 -22 33 -26 49 -21 79 4 28 2 40 -13 52 -34 29 -52 30 -70 3 -9 -14
-34 -37 -55 -50 l-39 -25 -25 31 c-14 16 -30 30 -35 30 -15 0 -121 -74 -145
-101 -12 -13 -34 -49 -50 -79 -41 -82 -40 -81 -81 -63 -20 8 -51 26 -69 41
l-32 26 31 16 c17 9 36 25 41 36 6 10 17 23 24 27 19 12 14 37 -13 73 -29 37
-31 49 -10 40 19 -7 20 16 3 47 -15 25 -28 37 -43 37 -5 0 -3 -4 5 -10 12 -7
10 -12 -10 -31 -14 -12 -41 -32 -62 -45 -20 -13 -39 -28 -43 -34 -11 -18 -23
-10 -30 21 -5 23 -17 35 -51 52 -40 19 -44 24 -39 49 4 15 3 37 0 49 -8 23 -4
23 -137 0 -41 -7 -47 -5 -51 11 -3 10 -13 21 -23 25 -10 3 -26 15 -36 25 -10
10 -26 18 -35 18 -17 -1 -17 -2 1 -15 10 -7 15 -18 12 -24 -4 -5 -2 -12 4 -16
18 -11 11 -19 -40 -50 -27 -16 -50 -33 -50 -37 0 -16 -30 -7 -30 8 0 14 -3 14
-15 4 -12 -10 -21 -10 -38 -1 -12 6 -44 15 -72 20 -27 5 -72 20 -100 32 -27
12 -53 22 -57 21 -3 -1 -12 5 -18 13 -7 8 -16 15 -21 15 -23 0 -98 43 -92 53
3 5 2 8 -3 4 -11 -6 -86 43 -92 61 -2 8 2 10 13 6 15 -6 15 -4 4 15 -13 19
-23 25 -32 19 -4 -4 -80 53 -89 66 -7 10 -96 18 -110 10 -12 -8 19 -74 48
-103 29 -29 39 -51 59 -127 27 -101 140 -262 262 -374 95 -87 214 -151 389
-208 217 -72 335 -94 513 -94 80 -1 178 2 216 6 l71 7 22 -44 c12 -24 22 -47
22 -50 0 -4 14 -35 31 -69 17 -35 47 -112 68 -173 21 -60 52 -146 70 -190 32
-84 38 -119 21 -130 -23 -14 -158 -5 -429 30 -268 34 -288 38 -355 71 -39 19
-107 61 -151 94 -44 33 -96 67 -115 77 -19 10 -52 30 -74 46 -21 15 -45 27
-53 27 -8 0 -11 5 -8 10 8 13 -20 47 -205 255 -175 196 -212 235 -221 235 -29
0 -8 -96 33 -149 10 -13 18 -40 18 -61 0 -24 7 -43 19 -54 11 -10 23 -36 26
-57 6 -35 4 -42 -20 -61 -19 -15 -23 -24 -16 -31 6 -6 11 -19 11 -30 0 -10 6
-28 13 -40 6 -12 12 -38 12 -57 0 -35 0 -35 40 -32 22 2 44 7 48 12 14 13 -3
52 -19 46 -8 -3 -14 0 -15 7 0 7 -2 20 -4 30 -2 12 3 17 20 17 12 0 30 10 38
22 16 23 16 23 16 -12 1 -28 10 -44 41 -75 27 -27 40 -48 40 -66 0 -37 -12
-42 -54 -23 -34 17 -35 17 -60 -12 -14 -16 -26 -32 -26 -36 0 -12 56 -47 122
-77 41 -18 73 -41 91 -65 40 -51 49 -46 42 21 -6 52 -4 59 14 71 18 10 22 10
27 -3 4 -8 1 -22 -6 -30 -9 -11 -11 -38 -7 -90 3 -41 4 -75 1 -75 -2 0 -13 9
-24 20 -11 11 -26 20 -32 20 -7 -1 20 -32 61 -69 68 -63 82 -91 47 -91 -7 0
-21 -9 -32 -21 -12 -13 -26 -18 -40 -15 -32 8 -160 137 -177 179 -11 25 -22
37 -36 37 -11 0 -22 -3 -24 -8 -3 -4 -30 -8 -61 -10 -60 -3 -121 21 -112 45 3
7 1 15 -4 18 -12 7 -3 30 32 83 28 43 29 85 1 46 -13 -17 -14 -17 -39 8 -21
21 -24 29 -16 45 9 15 7 23 -9 36 -10 9 -19 28 -19 42 0 27 -35 105 -48 105
-4 0 -13 18 -19 39 -11 34 -10 44 5 71 11 20 23 29 34 26 17 -4 58 51 58 78 0
15 -40 54 -41 40 0 -5 -7 15 -15 45 -14 53 -14 159 1 193 8 20 -20 70 -57 105
-23 22 -25 22 -60 6 l-36 -16 37 -40 c20 -21 36 -43 35 -48 -1 -5 -2 -21 -2
-37 -1 -15 -17 -51 -34 -79 -28 -44 -38 -53 -63 -53 -31 0 -83 27 -122 62 -29
27 -55 20 -59 -14 -4 -41 -14 -68 -25 -68 -5 0 -9 -9 -9 -19 0 -22 37 -35 74
-25 16 4 37 -3 65 -20 22 -14 45 -26 50 -26 19 0 23 -21 8 -38 -20 -21 -39
-69 -42 -104 -4 -36 27 -43 56 -12 12 13 30 24 39 24 17 0 19 -6 37 -117 3
-19 -2 -50 -11 -74 -15 -36 -15 -41 -2 -36 10 4 20 -2 27 -15 10 -19 9 -20
-14 -16 -25 5 -26 4 -20 -46 3 -28 15 -71 28 -97 27 -54 34 -192 9 -182 -11 4
-14 -6 -14 -41 0 -34 4 -46 15 -46 8 0 14 -3 13 -7 -4 -14 34 -77 75 -125 62
-74 61 -155 -2 -212 -14 -12 -28 -16 -45 -12 -28 7 -122 -30 -144 -56 -11 -14
-9 -19 15 -35 15 -11 48 -27 73 -36 25 -9 62 -33 83 -53 l37 -35 6 28 c5 24
16 32 77 57 116 46 126 63 80 128 -34 50 -43 130 -19 177 25 47 41 48 77 6 52
-59 115 -85 207 -85 47 0 83 -5 90 -12 17 -17 15 -83 -3 -98 -24 -20 -17 -107
11 -139 3 -3 17 8 33 23 16 15 35 28 42 29 8 2 20 6 27 10 7 5 12 4 12 -2 0
-6 7 -11 16 -11 11 0 14 5 10 16 -4 10 -1 14 6 11 7 -2 13 -10 13 -18 1 -20
15 -40 25 -34 5 3 11 1 15 -5 7 -12 32 -7 132 26 90 30 158 25 147 -10 -6 -20
-6 -20 12 -5 23 20 71 35 136 45 44 6 48 9 58 43 5 20 10 41 10 47 0 7 6 14
14 17 10 4 13 18 10 47 -3 30 3 55 21 89 21 42 29 50 62 56 21 4 44 12 51 18
20 16 35 -13 17 -33 -12 -13 -12 -23 -3 -54 7 -21 18 -40 25 -43 18 -7 17 -23
-2 -23 -8 0 -29 -18 -46 -40 -35 -44 -48 -48 -82 -25 l-23 15 3 -55 c2 -41 -1
-55 -11 -55 -8 0 -19 -6 -25 -14 -7 -8 -39 -15 -79 -18 -79 -6 -119 -24 -156
-72 -22 -30 -27 -46 -29 -108 -1 -40 -6 -76 -12 -80 -6 -5 -5 -8 3 -8 7 0 10
-5 7 -10 -3 -6 1 -18 11 -27 14 -15 37 -18 138 -18 112 0 121 -1 121 -19 0
-16 -15 -22 -89 -37 -48 -10 -90 -20 -93 -23 -3 -3 -15 1 -27 9 -11 8 -28 15
-38 15 -10 0 -18 4 -18 10 0 5 -16 27 -35 47 -20 21 -38 48 -41 60 -6 21 6 73
26 118 19 43 47 135 40 135 -4 0 -17 -9 -29 -19 -12 -10 -53 -27 -92 -36 -53
-13 -74 -24 -89 -45 -14 -20 -16 -30 -8 -38 17 -17 58 -15 65 4 5 13 9 12 26
-7 14 -15 17 -24 9 -27 -7 -2 -12 -12 -12 -21 0 -12 -7 -17 -22 -15 -13 1 -35
3 -50 3 -16 1 -27 4 -27 9 7 42 -17 56 -38 22 -7 -11 -33 -29 -59 -40 -31 -15
-44 -26 -40 -36 3 -8 1 -14 -4 -14 -6 0 -10 9 -10 20 0 13 -12 26 -32 36 -18
9 -47 34 -64 56 -33 43 -33 39 -9 144 4 19 -1 22 -47 28 -92 12 -137 49 -158
127 -16 58 -51 106 -69 94 -13 -8 -8 -96 7 -119 3 -6 7 -18 7 -26 0 -8 4 -31
9 -51 5 -22 2 -65 -8 -119 -20 -103 -42 -132 -98 -128 -57 3 -63 -12 -23 -54
19 -20 35 -41 35 -47 0 -12 -50 -19 -200 -26 -63 -3 -138 -8 -166 -11 l-51 -6
-46 60 c-69 89 -69 97 0 158 32 28 69 55 82 59 22 7 23 10 16 63 -4 38 -13 63
-26 74 -14 12 -18 24 -13 43 9 35 35 46 100 44 53 -2 57 -1 95 38 53 55 48 88
-22 153 -32 29 -53 59 -60 83 -9 34 -13 38 -37 34 -51 -9 -87 -18 -169 -44
-46 -14 -90 -22 -99 -19 -15 6 -15 8 1 26 10 11 13 20 7 20 -6 0 -9 6 -6 14 4
10 -5 15 -30 18 -20 2 -36 0 -36 -4 0 -5 -13 -22 -29 -38 -24 -26 -28 -37 -25
-75 5 -55 -37 -188 -60 -193 -20 -4 -20 9 -1 55 8 19 15 39 15 44 0 5 -26 37
-57 73 -43 47 -62 78 -76 122 -21 72 -22 152 -2 201 8 19 15 42 15 51 0 13 -3
13 -19 -2 -19 -17 -20 -17 -31 3 -9 17 -8 21 5 21 17 0 53 33 73 68 7 13 8 22
2 22 -5 0 -10 7 -10 15 0 8 -15 24 -32 35 -18 11 -26 20 -18 20 13 0 13 1 0
10 -9 6 -17 5 -21 -2 -11 -17 -39 -1 -39 21 0 14 -9 23 -25 27 -14 3 -25 10
-25 14 0 4 -27 13 -60 20 -44 9 -63 10 -73 1 -8 -6 -17 -8 -20 -4 -4 3 -7 1
-7 -6 0 -7 -4 -9 -10 -6 -6 4 -7 -1 -3 -12 11 -30 54 -62 89 -69 19 -3 32 -10
29 -14 -3 -5 8 -11 25 -15 16 -4 30 -11 30 -16 0 -6 -4 -7 -10 -4 -5 3 -10 -2
-11 -12 -1 -13 -3 -11 -9 7 -7 21 -8 18 -9 -19 -1 -24 -5 -60 -11 -80 -5 -20
-12 -49 -15 -64 -3 -16 -15 -31 -28 -36 -12 -5 -39 -21 -59 -35 -21 -14 -45
-23 -53 -19 -41 15 -60 130 -30 177 9 13 19 47 24 75 6 41 5 56 -11 81 -10 17
-18 39 -18 50 0 31 -41 69 -96 88 -73 25 -105 62 -68 76 30 12 61 6 80 -15 16
-18 26 -20 84 -14 36 3 105 8 153 11 81 5 89 7 99 30 7 15 15 21 22 16 7 -5
18 -1 29 11 19 19 18 19 -2 12 -21 -6 -30 8 -11 20 5 3 13 29 16 58 4 29 9 47
11 40 2 -7 11 -9 18 -6 11 4 12 10 5 24 -8 14 -6 25 6 44 25 39 16 146 -16
180 -13 14 -27 25 -32 25 -4 0 -19 -22 -32 -48 -43 -85 -101 -148 -176 -192
-39 -23 -73 -47 -76 -54 -3 -7 -10 -13 -17 -14 -27 -2 -120 -41 -127 -52 -4
-7 -13 -10 -19 -6 -16 10 -51 -12 -61 -40 -5 -13 -15 -23 -22 -22 -8 2 -11 -8
-10 -28 2 -18 -5 -45 -17 -64 -10 -18 -17 -39 -14 -47 3 -7 -2 -22 -12 -33 -9
-10 -14 -23 -11 -28 3 -6 -1 -26 -9 -46 -9 -21 -11 -36 -5 -36 5 0 10 -4 10
-9 0 -15 -71 -81 -87 -81 -8 0 -12 -4 -9 -8 6 -10 -126 -54 -234 -78 -115 -25
-483 -31 -631 -10 -258 37 -553 131 -694 221 -95 60 -107 67 -113 61 -3 -4 4
-19 16 -34 36 -44 72 -124 66 -148 -7 -27 34 -76 67 -79 13 -1 27 -3 32 -4 12
-2 8 -23 -8 -41 -13 -15 -12 -23 9 -76 72 -180 123 -264 184 -305 46 -31 102
-87 102 -101 0 -5 7 -8 15 -8 8 0 15 -5 15 -12 0 -6 11 -26 25 -44 14 -18 25
-36 25 -41 0 -4 12 -19 26 -32 14 -13 34 -40 45 -60 11 -20 38 -65 59 -101 21
-36 52 -90 68 -120 17 -30 40 -64 53 -75 l22 -20 -8 20 c-4 11 -10 31 -12 45
l-5 25 17 -25 c10 -14 31 -38 46 -55 15 -16 46 -69 69 -117 52 -111 81 -134
46 -35 -15 40 -4 51 15 15 7 -13 21 -35 33 -49 12 -15 27 -35 34 -45 11 -17
12 -15 8 17 -2 20 -16 49 -30 64 -25 27 -34 55 -18 55 4 0 36 -46 72 -101 36
-56 72 -109 82 -119 9 -10 19 -27 23 -39 21 -67 84 -151 114 -151 10 0 26 -10
34 -22 8 -13 37 -46 63 -73 27 -28 63 -68 80 -90 34 -43 58 -43 30 0 -10 15
-14 34 -10 49 3 13 0 35 -7 48 -12 21 -13 73 -2 91 2 4 18 -6 34 -23 17 -16
35 -30 40 -30 13 0 11 18 -3 27 -7 4 -19 16 -27 25 -12 16 -11 18 13 18 16 0
29 -7 33 -17 12 -32 63 -101 91 -125 15 -13 41 -48 57 -79 17 -31 45 -73 62
-93 l33 -36 421 2 421 3 -81 60 c-81 60 -121 113 -121 162 0 11 -7 26 -15 33
-19 16 -19 54 -1 69 11 10 24 3 65 -31 83 -70 114 -94 151 -114 19 -10 41 -27
48 -36 7 -10 19 -18 27 -18 8 0 44 -28 81 -62 66 -62 68 -63 123 -63 40 0 73
8 119 29 34 16 61 33 60 37 -2 4 -60 72 -130 151 -128 145 -259 277 -313 315
-26 18 -28 23 -16 37 19 23 4 36 -50 43 -24 3 -63 17 -86 30 -42 24 -72 27
-85 8 -11 -15 -34 -100 -48 -175 -6 -35 -19 -78 -28 -95 -15 -29 -20 -51 -41
-190 -5 -33 -12 -68 -16 -77 -14 -34 -113 -50 -151 -24 -17 12 -30 12 -82 1
-71 -14 -69 -16 -75 75 l-2 45 -18 -41 c-40 -92 -51 -106 -92 -120 -22 -8 -45
-14 -51 -14 -18 0 -47 26 -49 46 -1 10 -5 26 -8 34 -3 8 -8 31 -11 50 -14 91
-34 178 -49 207 -10 18 -17 38 -17 46 0 15 -57 145 -91 210 -11 20 -19 49 -17
65 5 43 52 59 235 78 154 17 162 17 188 0 l28 -18 -7 -111 c-4 -61 -5 -109 -2
-106 2 2 10 51 16 109 15 132 20 140 70 140 28 0 46 6 57 20 21 24 49 26 57 5
4 -12 19 -14 78 -10 40 3 92 2 115 -2 l42 -8 -20 -44 c-22 -51 -19 -61 10 -32
23 23 44 25 111 10 25 -5 84 -14 132 -19 48 -5 108 -18 132 -30 25 -11 53 -20
63 -20 11 0 23 -4 29 -9 5 -6 43 -21 84 -35 161 -53 291 -113 523 -242 81 -45
87 -51 82 -74 -7 -29 -31 -50 -56 -50 -10 0 -32 -20 -49 -45 -19 -27 -39 -45
-50 -45 -30 0 -24 -18 29 -90 l47 -65 96 -3 95 -3 39 53 c22 29 52 72 67 95
41 65 106 91 179 72 24 -6 58 -13 76 -16 38 -6 39 -14 10 -53 -29 -39 -19 -46
22 -15 19 14 40 25 49 25 21 0 121 -34 121 -41 0 -4 -27 -32 -61 -63 l-60 -56
2145 0 2146 0 0 1045 c0 1037 0 1046 -20 1035 -10 -6 -24 -29 -31 -53 -26 -97
-66 -133 -56 -51 3 33 12 53 30 68 18 15 27 35 32 69 3 27 15 57 26 68 18 18
19 37 19 389 l0 370 -36 0 c-46 0 -71 -23 -56 -53 47 -93 57 -141 51 -237 -5
-89 -9 -101 -51 -181 -26 -47 -52 -106 -59 -130 -14 -45 -30 -69 -47 -69 -6 0
-8 33 -6 83 3 57 2 75 -5 61 -11 -25 -31 -41 -31 -25 0 6 -6 11 -14 11 -7 0
-20 10 -28 22 l-15 22 -28 -22 c-15 -12 -31 -22 -35 -22 -18 0 -18 52 0 106
21 64 25 104 11 104 -5 0 -25 -22 -45 -49 -37 -50 -52 -61 -73 -54 -20 7 -15
35 11 62 50 53 86 214 51 228 -9 3 -43 -7 -76 -22 -68 -30 -85 -27 -46 9 34
32 35 69 2 90 -14 9 -25 22 -25 29 0 7 16 51 36 97 42 100 56 180 31 180 -9 0
-24 -12 -34 -26 -10 -15 -28 -37 -39 -50 -25 -26 -54 -81 -54 -101 0 -7 -4
-13 -10 -13 -5 0 -10 -7 -10 -16 0 -20 -27 -47 -40 -39 -5 3 -10 15 -10 26 0
10 -3 19 -7 19 -5 0 -9 17 -11 37 -2 37 -23 65 -58 77 -26 9 -104 108 -143
181 -18 35 -71 101 -128 160 -78 81 -99 110 -115 155 l-19 56 49 105 c27 57
54 124 60 149 6 25 22 90 36 145 20 77 26 125 26 207 0 169 -25 352 -66 475
-41 124 -123 297 -160 339 -39 45 -94 134 -93 153 0 10 2 11 6 4 2 -7 13 -13
23 -13 24 0 47 64 54 154 3 37 9 73 14 80 5 6 15 31 22 56 7 25 19 57 27 72 7
15 17 55 22 90 5 35 18 84 29 108 11 25 22 54 24 65 2 13 11 20 26 19 15 0 22
5 22 18 0 10 7 18 15 18 27 0 43 42 43 112 -1 59 3 73 36 127 21 34 43 61 51
61 7 0 15 5 17 11 3 8 10 8 26 -2 18 -12 22 -23 22 -69 0 -53 -18 -128 -39
-168 -6 -11 -23 -22 -38 -25 -22 -4 -31 -14 -40 -46 -7 -22 -13 -51 -13 -64 0
-13 -4 -27 -9 -32 -5 -6 -12 -61 -15 -123 -3 -62 -10 -130 -15 -150 -12 -51
-22 -132 -15 -132 3 0 21 16 40 35 19 20 56 45 82 56 26 11 54 27 63 35 17 15
69 10 69 -6 0 -5 9 -11 19 -15 10 -3 30 -17 44 -31 l25 -25 16 32 c9 18 16 56
16 86 0 30 7 89 16 131 9 42 16 87 16 99 0 12 13 35 28 51 15 17 30 37 33 46
4 9 13 16 21 16 14 0 26 14 107 117 l41 53 -8 180 c-5 125 -3 180 4 180 14 0
25 54 17 82 l-7 21 -14 -24 c-7 -13 -13 -18 -14 -11 0 6 -4 12 -10 12 -5 0
-10 -18 -10 -40 0 -22 -4 -40 -9 -40 -5 0 -11 -18 -15 -40 -3 -22 -12 -40 -19
-40 -6 0 -21 -19 -32 -42 -21 -45 -110 -138 -132 -138 -7 0 -13 -4 -13 -10 0
-5 -9 -10 -20 -10 -22 0 -26 26 -21 155 4 88 13 111 57 149 42 36 83 113 94
176 5 25 11 62 15 83 l8 37 -101 0 c-71 0 -102 -4 -105 -12 -4 -10 -6 -10 -6
0 -2 22 -16 13 -36 -24 -15 -28 -16 -37 -6 -43 10 -7 9 -15 -4 -42 -14 -25
-16 -47 -12 -95 5 -49 3 -63 -8 -68 -8 -3 -15 -12 -15 -21 0 -11 -11 -15 -40
-15 -24 0 -40 5 -40 12 0 9 -3 9 -12 0 -19 -19 -35 -14 -40 12 -6 32 18 211
38 279 5 16 -6 17 -134 17 -138 0 -140 0 -146 -23 -12 -49 -68 -157 -81 -157
-8 0 -18 -7 -23 -16 -5 -9 -15 -14 -21 -10 -6 4 -9 11 -6 16 3 4 -1 10 -8 13
-7 2 -14 20 -15 38 -1 19 -5 46 -8 60 -3 16 1 30 11 39 8 7 15 19 15 26 0 11
-39 14 -213 14 l-213 0 -18 -47z m526 -454 c-5 -54 -8 -68 -15 -75 -4 -4 -7
-16 -7 -26 0 -11 -11 -52 -25 -93 -14 -40 -27 -101 -29 -136 -4 -78 -23 -154
-42 -170 -8 -6 -14 -17 -14 -24 0 -8 -3 -15 -8 -17 -4 -1 -21 -37 -37 -78 -16
-41 -41 -95 -56 -120 -15 -25 -30 -55 -34 -67 -3 -13 -13 -23 -21 -23 -13 0
-153 118 -180 151 -7 8 -12 26 -12 41 0 15 -9 43 -21 63 -11 20 -21 52 -21 70
0 36 27 115 42 126 5 3 10 22 11 42 1 20 6 37 10 37 5 0 6 13 2 29 -6 28 5 85
29 143 9 24 29 37 62 42 14 2 39 27 47 49 3 9 15 17 26 17 11 0 26 8 33 19 13
19 95 35 123 25 15 -6 9 -74 -8 -85 -14 -10 -1 -39 17 -39 21 0 43 36 51 83 4
20 11 37 16 37 5 0 9 6 9 14 0 11 7 12 27 7 24 -7 27 -12 25 -42z m98 -335 c0
-2 -9 -4 -21 -4 -11 0 -18 4 -14 10 5 8 35 3 35 -6z m-7 -41 c-13 -2 -33 -2
-45 0 -13 2 -3 4 22 4 25 0 35 -2 23 -4z m84 1 c-3 -3 -12 -4 -19 -1 -8 3 -5
6 6 6 11 1 17 -2 13 -5z m-902 -135 c11 -17 0 -20 -21 -4 -17 13 -17 14 -2 15
9 0 20 -5 23 -11z m168 -154 c20 -14 37 -32 37 -40 0 -8 6 -15 13 -15 19 0 53
-27 45 -36 -4 -3 -19 1 -32 10 -33 21 -32 21 -30 -14 1 -17 -3 -30 -9 -30 -29
0 -57 13 -57 26 0 17 5 17 33 2 19 -10 20 -9 10 4 -7 8 -10 18 -6 21 10 10
-18 56 -38 62 -20 7 -34 35 -16 35 7 0 29 -11 50 -25z m445 -144 c2 -24 -1
-56 -7 -70 -5 -14 -12 -39 -16 -56 l-6 -29 -30 33 c-39 45 -40 106 -4 145 37
39 59 31 63 -23z m-292 -26 c18 -15 18 -15 -5 -13 -14 2 -26 9 -29 16 -5 17
10 15 34 -3z m-136 -15 c0 -5 -4 -10 -10 -10 -5 0 -10 5 -10 10 0 6 5 10 10
10 6 0 10 -4 10 -10z m180 -74 c0 -8 -4 -18 -10 -21 -5 -3 -10 3 -10 14 0 12
5 21 10 21 6 0 10 -6 10 -14z m45 -16 c8 -13 -5 -13 -25 0 -13 8 -13 10 2 10
9 0 20 -4 23 -10z m-155 -25 c20 -24 6 -28 -15 -5 -10 11 -13 20 -8 20 6 0 16
-7 23 -15z m147 -21 c-9 -10 -38 16 -31 28 4 6 13 4 22 -6 9 -8 13 -19 9 -22z
m-37 -20 c8 -19 15 -24 30 -19 23 7 25 2 8 -24 -11 -18 -14 -17 -40 17 -30 40
-34 52 -18 52 6 0 15 -12 20 -26z m-10 -75 c0 -6 -4 -7 -10 -4 -5 3 -10 11
-10 16 0 6 5 7 10 4 6 -3 10 -11 10 -16z m80 -4 c14 -16 10 -18 -14 -9 -9 3
-16 10 -16 15 0 14 16 11 30 -6z m-172 -71 c-5 -26 -38 -31 -38 -7 0 24 21 46
33 34 5 -5 7 -17 5 -27z m-218 -46 c0 -5 -6 -8 -14 -8 -14 0 -28 34 -18 44 5
6 31 -24 32 -36z m150 -143 c7 -8 8 -15 2 -15 -5 0 -15 7 -22 15 -7 8 -8 15
-2 15 5 0 15 -7 22 -15z m90 -26 c0 -5 -4 -9 -10 -9 -5 0 -10 7 -10 16 0 8 5
12 10 9 6 -3 10 -10 10 -16z m-140 -5 c0 -2 -9 -4 -20 -4 -11 0 -20 4 -20 9 0
5 9 7 20 4 11 -3 20 -7 20 -9z m-35 -24 c3 -5 1 -10 -4 -10 -6 0 -11 5 -11 10
0 6 2 10 4 10 3 0 8 -4 11 -10z m45 -9 c0 -6 -4 -13 -10 -16 -5 -3 -10 1 -10
9 0 9 5 16 10 16 6 0 10 -4 10 -9z m131 -18 c-8 -15 -10 -15 -11 -2 0 17 10
32 18 25 2 -3 -1 -13 -7 -23z m-249 -25 c-7 -7 -12 -8 -12 -2 0 14 12 26 19
19 2 -3 -1 -11 -7 -17z m-86 -22 c-1 -25 2 -30 18 -28 17 3 17 2 -3 -24 -16
-20 -21 -41 -21 -84 0 -37 -5 -62 -14 -69 -7 -6 -17 -30 -22 -54 l-8 -42 -4
39 c-2 21 1 43 7 49 14 14 14 27 1 27 -5 0 -10 -8 -10 -17 0 -13 -3 -14 -11
-6 -12 12 8 73 25 73 4 0 6 9 3 20 -3 11 -1 23 4 26 5 3 9 10 9 15 0 6 -5 7
-12 3 -8 -5 -9 -2 -5 10 4 10 7 23 7 29 0 7 5 6 11 -3 8 -12 9 -11 7 5 -3 14
-11 19 -28 18 -14 -1 -19 1 -12 3 6 3 12 13 12 22 0 11 9 18 24 18 20 2 24 -3
22 -30z m289 4 c3 -5 1 -10 -4 -10 -6 0 -11 5 -11 10 0 6 2 10 4 10 3 0 8 -4
11 -10z m-199 -47 c-10 -10 -19 5 -10 18 6 11 8 11 12 0 2 -7 1 -15 -2 -18z
m481 -5 c-3 -7 -5 -2 -5 12 0 14 2 19 5 13 2 -7 2 -19 0 -25z m-617 12 c0 -5
-6 -10 -14 -10 -15 0 -29 -27 -21 -40 3 -4 -2 -11 -11 -14 -9 -3 -12 -2 -9 5
4 5 1 17 -6 25 -15 18 -4 31 31 37 14 2 26 5 28 6 1 0 2 -3 2 -9z m110 -23 c0
-7 -5 -18 -12 -25 -9 -9 -8 -15 7 -25 19 -15 13 -37 -10 -37 -9 0 -12 6 -8 16
4 10 0 22 -10 29 -15 10 -15 14 -1 33 17 25 34 29 34 9z m86 -22 c2 -27 -6
-31 -24 -13 -17 17 -15 26 6 31 9 3 17 5 17 6 0 0 1 -10 1 -24z m-266 -5 c0
-5 -4 -10 -9 -10 -6 0 -13 5 -16 10 -3 6 1 10 9 10 9 0 16 -4 16 -10z m-30
-25 c10 -13 15 -13 21 -3 6 9 10 8 15 -5 3 -9 12 -17 20 -17 8 0 14 -4 14 -9
0 -15 -62 6 -84 29 -11 11 -15 20 -9 20 6 0 16 -7 23 -15z m95 -6 c-10 -15
-25 -10 -19 6 4 8 10 12 15 9 5 -3 7 -10 4 -15z m-57 -72 c2 -27 -21 -53 -37
-43 -5 4 -12 2 -16 -4 -3 -5 -21 -9 -38 -9 -22 1 -25 3 -12 6 11 3 32 14 48
25 21 15 26 25 21 45 -6 22 -5 24 12 15 11 -6 20 -21 22 -35z m142 2 c0 -6 -4
-7 -10 -4 -5 3 -10 11 -10 16 0 6 5 7 10 4 6 -3 10 -11 10 -16z m-190 2 c0
-12 -20 -25 -27 -18 -7 7 6 27 18 27 5 0 9 -4 9 -9z m161 -48 c-10 -17 -10
-16 -11 3 0 23 13 41 18 25 2 -6 -1 -18 -7 -28z m129 13 c0 -3 -4 -8 -10 -11
-5 -3 -10 -1 -10 4 0 6 5 11 10 11 6 0 10 -2 10 -4z m-200 -17 c0 -3 -9 -9
-20 -12 -13 -3 -18 -10 -14 -21 4 -11 1 -16 -10 -16 -9 0 -19 -7 -22 -15 -4
-8 -11 -15 -17 -15 -7 0 -7 4 1 12 7 7 12 18 12 26 0 8 9 22 20 32 19 17 50
23 50 9z m130 -10 c0 -6 -7 -9 -15 -5 -8 3 -15 1 -15 -4 0 -6 5 -10 10 -10 6
0 10 -5 10 -10 0 -6 -11 -8 -25 -4 -17 4 -25 2 -25 -7 0 -7 -3 -9 -6 -6 -12
11 26 57 46 57 11 0 20 -5 20 -11z m-48 -69 c-12 -12 -22 -15 -22 -9 0 13 32
40 39 33 3 -2 -5 -13 -17 -24z m-102 0 c0 -5 -4 -10 -10 -10 -5 0 -10 5 -10
10 0 6 5 10 10 10 6 0 10 -4 10 -10z m260 0 c0 -5 -2 -10 -4 -10 -3 0 -8 5
-11 10 -3 6 -1 10 4 10 6 0 11 -4 11 -10z m-365 -20 c3 -5 1 -10 -4 -10 -6 0
-11 5 -11 10 0 6 2 10 4 10 3 0 8 -4 11 -10z m41 -36 c-4 -9 -9 -15 -11 -12
-3 3 -3 13 1 22 4 9 9 15 11 12 3 -3 3 -13 -1 -22z m244 6 c0 -5 -5 -10 -11
-10 -5 0 -7 5 -4 10 3 6 8 10 11 10 2 0 4 -4 4 -10z m-133 -35 c1 -18 -1 -22
-4 -10 -3 11 -13 25 -22 33 -14 12 -14 13 4 10 14 -2 21 -12 22 -33z m-47 5
c0 -5 -7 -10 -15 -10 -8 0 -15 5 -15 10 0 6 7 10 15 10 8 0 15 -4 15 -10z
m450 -90 c0 -5 -8 -10 -17 -10 -15 0 -16 2 -3 10 19 12 20 12 20 0z m-633 -46
c-3 -3 -12 -4 -19 -1 -8 3 -5 6 6 6 11 1 17 -2 13 -5z m-94 -52 c-4 -18 -8
-20 -19 -11 -10 8 -11 16 -3 31 14 25 30 10 22 -20z m277 17 c0 -6 -4 -7 -10
-4 -5 3 -10 11 -10 16 0 6 5 7 10 4 6 -3 10 -11 10 -16z m-236 -30 c-3 -5 -10
-7 -15 -3 -5 3 -7 10 -3 15 3 5 10 7 15 3 5 -3 7 -10 3 -15z m198 -1 c-6 -6
-15 -8 -19 -4 -4 4 -1 11 7 16 8 5 17 7 19 4 3 -2 -1 -10 -7 -16z m-171 -46
c5 -14 5 -21 0 -17 -5 3 -12 1 -16 -5 -3 -5 -18 -10 -32 -10 -18 0 -24 4 -20
14 4 10 1 13 -9 9 -17 -6 -18 9 -2 25 21 21 70 10 79 -16z m17 -72 c5 -29 -13
-40 -49 -30 -21 6 -29 4 -34 -7 -3 -9 -3 -18 0 -21 3 -3 5 0 5 6 0 7 5 12 10
12 14 0 12 -38 -2 -42 -20 -7 -33 14 -33 55 0 24 4 36 12 33 6 -3 16 1 22 7 5
7 23 12 38 12 21 -1 29 -7 31 -25z m-113 -20 c3 -5 1 -10 -4 -10 -6 0 -11 5
-11 10 0 6 2 10 4 10 3 0 8 -4 11 -10z m-5 -55 c0 -8 -4 -15 -10 -15 -5 0 -10
7 -10 15 0 8 5 15 10 15 6 0 10 -7 10 -15z m-28 -77 c-7 -7 -12 -8 -12 -2 0
14 12 26 19 19 2 -3 -1 -11 -7 -17z m-112 -12 c0 -3 -4 -8 -10 -11 -5 -3 -10
-1 -10 4 0 6 5 11 10 11 6 0 10 -2 10 -4z m167 -18 c-3 -8 -6 -5 -6 6 -1 11 2
17 5 13 3 -3 4 -12 1 -19z m95 -10 c-7 -7 -12 -8 -12 -2 0 14 12 26 19 19 2
-3 -1 -11 -7 -17z m-287 -33 c1 -23 -1 -31 -6 -23 -10 15 -12 74 -3 65 4 -3 8
-22 9 -42z m75 21 c0 -8 -7 -16 -15 -20 -17 -6 -18 -4 -9 18 8 20 24 21 24 2z
m-140 -32 c0 -8 -4 -12 -10 -9 -5 3 -10 10 -10 16 0 5 5 9 10 9 6 0 10 -7 10
-16z m338 -1 c0 -10 1 -25 3 -33 2 -9 -2 -14 -9 -12 -9 2 -11 -4 -7 -18 4 -12
2 -20 -5 -20 -7 0 -9 -8 -5 -20 4 -14 2 -20 -9 -20 -19 0 -30 17 -16 25 8 5 7
11 -1 21 -9 11 -8 14 5 14 13 0 15 4 6 19 -13 26 -13 31 5 31 9 0 12 6 9 15
-4 9 0 15 9 15 9 0 15 -8 15 -17z m-444 -14 c-6 -11 -44 -12 -44 -1 0 4 11 8
25 8 14 1 22 -2 19 -7z m226 1 c0 -5 -9 -10 -20 -10 -11 0 -20 5 -20 10 0 6 9
10 20 10 11 0 20 -4 20 -10z m-20 -30 c0 -5 -4 -10 -10 -10 -5 0 -10 5 -10 10
0 6 5 10 10 10 6 0 10 -4 10 -10z m-160 -32 c0 -12 -14 -10 -28 4 -19 19 -14
29 8 16 11 -7 20 -16 20 -20z m-65 -10 c-19 -11 -30 -5 -21 11 4 6 14 7 22 4
15 -5 14 -7 -1 -15z m-395 2 c0 -5 -2 -10 -4 -10 -3 0 -8 5 -11 10 -3 6 -1 10
4 10 6 0 11 -4 11 -10z m587 -12 c-3 -8 -6 -5 -6 6 -1 11 2 17 5 13 3 -3 4
-12 1 -19z m203 12 c0 -5 -5 -10 -11 -10 -5 0 -7 5 -4 10 3 6 8 10 11 10 2 0
4 -4 4 -10z m105 0 c3 -5 -1 -10 -9 -10 -9 0 -16 5 -16 10 0 6 4 10 9 10 6 0
13 -4 16 -10z m-654 -41 c-5 -13 -10 -19 -10 -12 -1 15 10 45 15 40 3 -2 0
-15 -5 -28z m-236 11 c3 -5 -1 -10 -9 -10 -8 0 -18 5 -21 10 -3 6 1 10 9 10 8
0 18 -4 21 -10z m325 -10 c0 -5 -5 -10 -11 -10 -5 0 -7 5 -4 10 3 6 8 10 11
10 2 0 4 -4 4 -10z m489 -67 c-60 -63 -81 -82 -90 -83 -4 0 11 19 32 42 28 31
37 48 33 64 -3 12 0 25 7 30 9 5 10 2 6 -9 -8 -22 -1 -21 30 3 48 37 37 10
-18 -47z m-262 -5 c9 -10 11 -18 6 -18 -6 0 -14 7 -17 16 -3 9 -12 14 -19 11
-6 -2 -18 1 -24 9 -10 10 -8 16 10 29 21 15 22 14 25 -7 2 -13 11 -31 19 -40z
m106 32 c-5 -19 -23 -29 -23 -12 0 7 20 32 26 32 1 0 0 -9 -3 -20z m-648 0 c3
-5 1 -10 -4 -10 -6 0 -11 5 -11 10 0 6 2 10 4 10 3 0 8 -4 11 -10z m205 0 c8
12 10 9 10 -12 0 -29 -16 -44 -42 -40 -12 2 -18 -3 -19 -15 0 -16 -1 -16 -9 2
-12 29 -12 35 4 35 8 0 18 10 21 21 6 17 9 19 16 8 8 -12 11 -12 19 1z m565
-20 c3 -5 1 -10 -4 -10 -6 0 -11 5 -11 10 0 6 2 10 4 10 3 0 8 -4 11 -10z
m-711 -9 c3 -5 -3 -11 -14 -14 -20 -5 -26 3 -13 16 9 10 21 9 27 -2z m344 -5
c-7 -8 -15 -12 -17 -11 -5 6 10 25 20 25 5 0 4 -6 -3 -14z m-468 -6 c0 -5 -2
-10 -4 -10 -3 0 -8 5 -11 10 -3 6 -1 10 4 10 6 0 11 -4 11 -10z m747 -10 c2
-17 -1 -18 -18 -10 -10 6 -19 13 -19 16 0 3 5 2 10 -1 6 -3 10 -1 10 4 0 20
16 11 17 -9z m-907 -25 c0 -8 -4 -15 -10 -15 -5 0 -7 7 -4 15 4 8 8 15 10 15
2 0 4 -7 4 -15z m590 6 c0 -5 -7 -12 -16 -15 -9 -4 -14 -13 -10 -21 4 -11 -2
-15 -27 -14 -30 0 -31 1 -9 10 13 5 26 18 29 29 5 20 33 29 33 11z m260 -40
c0 -9 -16 -26 -35 -38 -43 -28 -49 -29 -33 -3 7 11 18 20 24 20 17 0 27 31 14
44 -19 19 -10 29 10 11 11 -10 20 -25 20 -34z m-720 29 c0 -5 -4 -10 -10 -10
-5 0 -10 5 -10 10 0 6 5 10 10 10 6 0 10 -4 10 -10z m758 1 c11 -7 11 -9 -1
-14 -16 -6 -27 0 -27 15 0 10 11 10 28 -1z m-273 -21 c-3 -5 -11 -10 -16 -10
-6 0 -7 5 -4 10 3 6 11 10 16 10 6 0 7 -4 4 -10z m-1970 -9 c3 -5 1 -12 -5
-16 -5 -3 -10 1 -10 9 0 18 6 21 15 7z m1721 -19 c-8 -9 -19 -13 -22 -9 -10 9
16 38 28 31 6 -4 4 -13 -6 -22z m-275 -9 c-12 -20 -14 -14 -5 12 4 9 9 14 11
11 3 -2 0 -13 -6 -23z m-271 13 c0 -3 -4 -8 -10 -11 -5 -3 -10 -1 -10 4 0 6 5
11 10 11 6 0 10 -2 10 -4z m155 -6 c-3 -5 -13 -10 -21 -10 -8 0 -12 5 -9 10 3
6 13 10 21 10 8 0 12 -4 9 -10z m-105 -18 c0 -27 -10 -33 -32 -21 -15 8 -17
13 -7 25 16 20 39 17 39 -4z m-630 -19 c0 -13 -3 -13 -15 -3 -8 7 -12 16 -9
21 8 13 24 1 24 -18z m1069 4 c-14 -13 -27 -18 -31 -13 -4 6 -16 5 -33 -2 -18
-8 -32 -9 -43 -2 -16 9 -16 9 1 10 9 0 17 4 17 8 0 5 21 9 47 11 26 1 49 4 52
7 2 2 7 4 9 4 3 0 -6 -10 -19 -23z m-418 -17 c-13 -11 -27 -20 -32 -20 -15 0
25 38 41 39 10 0 7 -6 -9 -19z m257 13 c-9 -2 -15 -10 -12 -18 3 -7 0 -16 -7
-21 -7 -4 -10 -3 -5 4 3 6 2 13 -4 17 -19 12 -10 25 18 24 15 -1 20 -3 10 -6z
m-1408 -18 c0 -8 7 -15 16 -15 8 0 12 5 9 10 -3 6 -1 10 4 10 13 0 14 -10 3
-27 -5 -9 -28 -12 -65 -10 -47 2 -54 4 -41 14 9 6 22 9 30 6 8 -3 17 2 20 11
8 20 24 21 24 1z m294 -7 c-3 -4 -1 -8 4 -8 5 0 12 -11 14 -25 6 -31 2 -31
-23 -2 -16 19 -20 20 -29 7 -8 -12 -10 -11 -10 6 0 11 2 23 5 25 7 8 44 5 39
-3z m316 2 c0 -5 -4 -10 -10 -10 -5 0 -10 5 -10 10 0 6 5 10 10 10 6 0 10 -4
10 -10z m480 0 c-8 -5 -19 -10 -25 -10 -5 0 -3 5 5 10 8 5 20 10 25 10 6 0 3
-5 -5 -10z m887 4 c-3 -3 -12 -4 -19 -1 -8 3 -5 6 6 6 11 1 17 -2 13 -5z
m-1077 -20 c0 -2 -7 -4 -15 -4 -8 0 -15 4 -15 10 0 5 7 7 15 4 8 -4 15 -8 15
-10z m196 -21 c-10 -10 -19 5 -10 18 6 11 8 11 12 0 2 -7 1 -15 -2 -18z m115
14 c-1 -12 -15 -9 -19 4 -3 6 1 10 8 8 6 -3 11 -8 11 -12z m-982 -14 c-1 -10
1 -26 6 -36 4 -11 3 -23 -3 -29 -8 -8 -12 -4 -15 13 -8 40 -6 69 4 69 6 0 9
-8 8 -17z m238 -5 c-3 -8 -6 -5 -6 6 -1 11 2 17 5 13 3 -3 4 -12 1 -19z m133
12 c0 -5 -4 -10 -10 -10 -5 0 -10 5 -10 10 0 6 5 10 10 10 6 0 10 -4 10 -10z
m-190 -10 c0 -5 -7 -7 -15 -4 -8 4 -15 8 -15 10 0 2 7 4 15 4 8 0 15 -4 15
-10z m280 -4 c0 -9 -40 -13 -46 -5 -3 5 6 9 20 9 14 0 26 -2 26 -4z m230 -11
c0 -8 -4 -15 -10 -15 -5 0 -10 7 -10 15 0 8 5 15 10 15 6 0 10 -7 10 -15z
m-323 -17 c-3 -8 -6 -5 -6 6 -1 11 2 17 5 13 3 -3 4 -12 1 -19z m-237 2 c0 -5
-4 -10 -10 -10 -5 0 -10 5 -10 10 0 6 5 10 10 10 6 0 10 -4 10 -10z m-90 -4
c0 -3 -4 -8 -10 -11 -5 -3 -10 -1 -10 4 0 6 5 11 10 11 6 0 10 -2 10 -4z m147
-2 c-3 -3 -12 -4 -19 -1 -8 3 -5 6 6 6 11 1 17 -2 13 -5z m1099 -30 c-11 -7
-22 -12 -25 -9 -2 3 4 12 15 19 10 8 21 12 24 9 3 -2 -4 -11 -14 -19z m-1110
-4 c9 0 12 -4 9 -10 -4 -6 -13 -5 -25 2 -10 7 -16 17 -13 22 4 6 8 5 11 -2 2
-7 10 -12 18 -12z m-42 -5 c7 -19 -3 -19 -28 0 -19 15 -19 15 1 15 11 0 23 -7
27 -15z m171 -4 c-3 -6 -11 -11 -17 -11 -6 0 -6 6 2 15 14 17 26 13 15 -4z
m725 9 c0 -5 -2 -10 -4 -10 -3 0 -8 5 -11 10 -3 6 -1 10 4 10 6 0 11 -4 11
-10z m-1050 -14 c0 -3 -4 -8 -10 -11 -5 -3 -10 -1 -10 4 0 6 5 11 10 11 6 0
10 -2 10 -4z m1050 -14 c0 -13 -12 -22 -22 -16 -10 6 -1 24 13 24 5 0 9 -4 9
-8z m-997 -9 c-7 -2 -19 -2 -25 0 -7 3 -2 5 12 5 14 0 19 -2 13 -5z m149 -26
c-12 -6 -25 -7 -29 -3 -11 10 18 25 35 18 13 -4 11 -8 -6 -15z m593 -17 c3 -5
1 -10 -4 -10 -6 0 -11 5 -11 10 0 6 2 10 4 10 3 0 8 -4 11 -10z m2559 -36 c9
-3 16 -17 16 -30 0 -12 7 -27 16 -32 9 -5 15 -15 12 -23 -5 -16 -111 -39 -141
-31 -20 6 -19 7 7 12 22 4 32 13 38 35 13 42 27 75 32 75 2 0 11 -3 20 -6z
m71 -104 c3 -5 1 -10 -4 -10 -6 0 -11 5 -11 10 0 6 2 10 4 10 3 0 8 -4 11 -10z
m-85 -113 c52 1 89 0 83 -3 -20 -9 -15 -22 9 -30 l21 -6 -24 -13 c-13 -8 -28
-10 -34 -6 -5 5 -26 11 -45 14 -27 4 -48 -2 -95 -28 -65 -36 -96 -76 -97 -125
-1 -35 -5 -36 -36 -12 l-22 17 29 18 c22 13 32 29 41 68 7 28 18 53 25 56 8 2
16 11 19 19 3 9 1 12 -4 9 -12 -7 -12 -3 -4 20 5 11 12 14 23 8 9 -4 59 -7
111 -6z m-2010 -267 c0 -5 -5 -10 -11 -10 -5 0 -7 5 -4 10 3 6 8 10 11 10 2 0
4 -4 4 -10z m80 -7 c13 -10 36 -30 52 -45 16 -16 34 -28 39 -28 5 0 8 -3 8 -7
-4 -23 3 -35 16 -29 8 3 15 1 15 -3 0 -5 9 -7 20 -4 11 3 20 14 20 24 0 12 5
16 15 13 8 -4 12 -10 9 -15 -3 -5 1 -10 8 -11 7 0 18 -2 23 -3 6 -1 28 -5 50
-9 81 -15 141 -30 166 -42 15 -7 29 -10 32 -7 4 3 12 1 19 -5 7 -5 49 -13 93
-17 44 -3 81 -7 82 -9 1 -1 -9 -14 -23 -29 -21 -23 -32 -27 -69 -25 -24 2 -41
6 -38 11 2 4 -23 7 -56 7 -33 0 -72 5 -87 10 -15 6 -47 13 -72 16 -24 3 -55 9
-69 15 -13 5 -38 9 -54 9 -16 0 -29 5 -29 10 0 6 -8 10 -17 10 -46 -1 -155 46
-193 81 -38 36 -50 59 -31 59 5 0 13 9 16 20 8 25 24 25 55 3z m1222 -153 c6
0 8 -9 5 -20 -3 -10 0 -21 7 -24 6 -2 -1 -5 -16 -5 -14 -1 -29 -7 -31 -13 -3
-8 -6 -6 -6 5 -1 9 -5 17 -11 17 -5 0 -9 -3 -9 -7 3 -18 -2 -33 -10 -33 -12 0
-8 39 5 48 6 4 14 15 17 26 5 11 13 16 23 12 9 -3 20 -6 26 -6z m-72 -10 c0
-5 -7 -10 -16 -10 -8 0 -12 5 -9 10 3 6 10 10 16 10 5 0 9 -4 9 -10z m-372
-37 c-10 -2 -19 -9 -19 -14 -1 -5 -2 -15 -3 -21 0 -8 -19 -14 -44 -16 -39 -3
-42 -1 -34 15 5 10 7 23 5 29 -3 8 15 12 54 12 32 -1 50 -3 41 -5z m-3328 -43
c0 -5 -2 -10 -4 -10 -3 0 -8 5 -11 10 -3 6 -1 10 4 10 6 0 11 -4 11 -10z
m2102 -179 c182 -47 350 -72 547 -81 176 -9 185 -10 222 -36 22 -15 39 -33 39
-40 0 -8 5 -14 10 -14 6 0 10 -6 10 -14 0 -7 11 -30 25 -50 14 -20 25 -43 25
-51 0 -8 8 -30 17 -50 17 -35 17 -36 -8 -60 -18 -18 -43 -27 -99 -36 -41 -6
-79 -15 -85 -19 -25 -20 -303 -33 -415 -20 -41 5 -106 10 -143 11 -37 1 -70 6
-73 11 -3 4 -34 8 -69 8 -37 0 -69 5 -77 13 -7 6 -36 31 -65 55 -39 33 -57 56
-72 98 -12 30 -21 65 -21 77 0 12 -7 35 -15 51 -8 15 -15 35 -15 42 0 8 -4 14
-10 14 -5 0 -10 16 -10 35 0 19 4 35 9 35 5 0 12 9 16 19 12 40 108 40 257 2z
m-3097 1 c-3 -3 -11 0 -18 7 -9 10 -8 11 6 5 10 -3 15 -9 12 -12z m-69 -59
c-10 -10 -19 5 -10 18 6 11 8 11 12 0 2 -7 1 -15 -2 -18z m1552 -6 c2 -18 -1
-27 -11 -27 -15 0 -27 20 -27 47 0 27 35 9 38 -20z m117 -57 c3 -5 -3 -10 -14
-10 -12 0 -21 5 -21 10 0 6 6 10 14 10 8 0 18 -4 21 -10z m95 -190 c0 -26 -49
-48 -62 -28 -19 31 -7 48 34 48 21 0 28 -5 28 -20z m2015 -244 c9 -9 27 -16
40 -16 29 0 38 -13 30 -41 -5 -16 -13 -20 -33 -15 -15 3 -21 3 -15 0 10 -4 10
-9 -1 -19 -9 -9 -34 -12 -82 -10 -38 2 -86 4 -106 4 -35 1 -57 21 -23 21 8 0
15 5 15 10 0 6 9 19 20 30 16 16 17 20 5 20 -17 0 -17 2 -10 22 8 21 139 16
160 -6z m-1684 -6 c5 0 9 -8 8 -17 0 -11 -3 -13 -6 -5 -2 6 -11 12 -18 12 -8
0 -17 5 -21 12 -5 8 -2 9 10 5 10 -4 22 -7 27 -7z m-1646 -45 c-22 -8 -51 -14
-65 -14 -24 0 -24 0 5 14 17 7 46 13 65 13 l35 0 -40 -13z m1495 -27 c0 -13
-23 -5 -28 10 -2 7 2 10 12 6 9 -3 16 -11 16 -16z m-257 -23 c30 -28 34 -52
14 -80 -17 -22 -37 -12 -37 18 -1 12 -7 33 -15 47 -8 14 -14 28 -15 33 0 15
26 6 53 -18z m2164 9 c-3 -3 -12 -4 -19 -1 -8 3 -5 6 6 6 11 1 17 -2 13 -5z
m-5371 -131 c-10 -10 -36 18 -36 40 0 18 2 17 21 -7 12 -15 19 -30 15 -33z
m3695 23 c35 -4 65 -15 77 -27 12 -10 26 -19 32 -19 13 0 13 -6 -1 -33 -17
-31 -30 -37 -66 -31 -31 6 -32 5 -35 -33 -3 -35 -5 -38 -33 -38 -16 0 -33 -4
-36 -9 -4 -5 -12 -5 -18 -2 -15 10 -14 36 2 36 7 0 21 13 30 30 15 25 16 33 5
52 l-13 23 -3 -22 c-3 -18 -10 -23 -33 -23 -35 0 -46 21 -30 57 8 16 17 23 27
19 13 -5 14 0 9 27 -7 31 -7 31 11 16 11 -9 44 -20 75 -23z m-1730 -6 c10 -6
19 -20 19 -31 0 -21 27 -79 36 -79 4 0 3 20 0 44 -6 41 -5 44 18 48 39 8 64
-26 68 -92 l3 -55 -29 3 -30 4 18 -27 c21 -32 27 -118 9 -136 -9 -9 -20 -8
-48 5 -40 19 -62 12 -30 -9 44 -30 65 -60 65 -91 0 -46 -9 -64 -32 -64 -33 0
-124 49 -137 74 -8 13 -33 31 -56 41 -24 9 -46 23 -49 32 -9 22 24 134 41 140
8 3 24 -4 37 -16 20 -19 46 -28 46 -16 0 3 -4 13 -9 23 -6 9 -21 43 -35 74
-27 58 -25 88 6 125 13 16 62 17 89 3z m333 -36 c3 -8 2 -12 -4 -9 -6 3 -10
10 -10 16 0 14 7 11 14 -7z m1650 -9 c45 -19 48 -49 10 -94 -52 -62 -77 -62
-118 0 -25 36 -23 45 8 40 5 -1 6 12 2 29 -5 27 -3 31 13 25 11 -3 22 -1 26 5
8 13 16 13 59 -5z m2626 -18 c0 -8 -9 -22 -19 -31 -22 -20 -36 -7 -26 24 7 22
45 28 45 7z m-2290 -37 c0 -5 -4 -10 -10 -10 -5 0 -10 5 -10 10 0 6 5 10 10
10 6 0 10 -4 10 -10z m-680 -26 c0 -8 -4 -12 -10 -9 -5 3 -10 10 -10 16 0 5 5
9 10 9 6 0 10 -7 10 -16z m2981 -27 c-1 -12 -15 -9 -19 4 -3 6 1 10 8 8 6 -3
11 -8 11 -12z m-5621 -50 c190 -33 257 -60 245 -102 -17 -61 -45 -226 -45
-267 0 -76 -90 -404 -122 -445 -5 -7 -28 -13 -51 -15 -37 -3 -42 -6 -42 -28 0
-18 -8 -27 -27 -34 -37 -13 -58 6 -58 55 0 41 7 48 29 26 16 -16 5 63 -16 113
-9 19 -21 67 -28 105 -26 135 -37 191 -55 275 -10 47 -21 100 -25 118 -5 25
-11 32 -24 27 -38 -12 -43 18 -15 91 14 38 33 77 42 87 19 21 44 20 192 -6z
m3939 4 c12 -8 12 -11 0 -23 -15 -14 -63 -23 -56 -10 2 4 7 15 10 25 7 19 24
22 46 8z m-149 -81 c0 -5 -7 -10 -15 -10 -12 0 -14 -4 -7 -17 15 -26 -5 -72
-29 -66 -15 4 -17 11 -13 32 10 41 64 93 64 61z m-108 -82 c-7 -7 -12 -8 -12
-2 0 14 12 26 19 19 2 -3 -1 -11 -7 -17z m-526 -50 c-3 -13 -9 -49 -12 -80
l-7 -57 59 -80 c50 -68 63 -80 89 -81 58 -1 73 -10 83 -50 12 -50 -6 -80 -48
-80 -22 0 -28 -4 -24 -15 4 -10 2 -13 -8 -10 -8 3 -21 -1 -28 -10 -15 -18 -16
-17 35 -20 27 -2 44 2 52 12 11 14 16 12 43 -11 17 -14 29 -26 25 -26 -4 0 1
-7 10 -16 20 -20 17 -23 -24 -26 -18 -1 -35 -6 -37 -10 -3 -4 -13 -8 -24 -8
-14 0 -18 7 -16 30 2 23 -2 30 -16 30 -11 0 -15 -5 -12 -15 8 -19 0 -19 -36 0
-17 9 -30 21 -30 28 0 6 -5 4 -11 -5 -14 -25 -59 -24 -59 1 0 10 -7 24 -15 31
-8 7 -15 17 -15 23 0 5 8 3 18 -6 23 -21 32 -21 32 -2 0 8 -6 15 -13 15 -8 0
-22 10 -33 21 l-19 22 35 -7 c19 -4 52 -8 72 -10 20 -2 41 -7 47 -11 6 -3 11
-2 11 2 0 5 -9 14 -20 21 -11 7 -20 19 -20 27 0 8 -4 15 -9 15 -4 0 -16 19
-25 43 -9 23 -39 66 -66 96 -44 47 -50 58 -50 97 0 56 38 144 62 144 6 0 8
-10 4 -22z m814 3 c0 -15 -29 -33 -41 -25 -9 5 -7 11 6 21 22 15 35 17 35 4z
m651 -71 c-14 -13 -37 -20 -60 -19 l-36 1 48 13 c27 7 51 16 55 19 3 3 8 6 11
6 3 -1 -5 -10 -18 -20z m79 16 c0 -2 -7 -7 -16 -10 -8 -3 -12 -2 -9 4 6 10 25
14 25 6z m-875 -108 c-9 -23 -17 -71 -18 -106 0 -44 -3 -58 -10 -47 -17 32 20
221 40 201 3 -3 -2 -24 -12 -48z m166 -54 c54 -27 76 -59 30 -43 -31 11 -161
125 -161 142 0 6 19 -8 43 -32 23 -24 63 -54 88 -67z m-513 89 c-10 -2 -26 -2
-35 0 -10 3 -2 5 17 5 19 0 27 -2 18 -5z m1202 -66 c0 -11 -7 -35 -16 -54 -21
-43 -123 -116 -145 -102 -8 5 -31 9 -51 9 -36 0 -38 2 -38 30 0 24 6 33 28 41
15 6 40 16 55 24 15 8 34 12 42 9 19 -8 83 24 96 47 5 10 7 31 4 46 l-5 28 14
-30 c9 -16 15 -38 16 -48z m-1003 2 c67 -56 68 -88 6 -145 -37 -34 -44 -44
-29 -44 11 0 32 -12 48 -27 23 -22 31 -25 50 -16 13 6 31 14 41 17 9 3 17 16
18 28 1 20 2 19 9 -6 9 -30 -10 -75 -34 -77 -19 -2 -41 3 -46 10 -28 40 -128
55 -161 25 -16 -15 -21 -15 -49 0 -23 11 -37 13 -50 6 -37 -20 -57 -12 -63 23
-6 35 -3 80 8 96 3 6 29 11 56 11 50 0 109 22 109 40 0 6 5 10 11 10 8 0 10
-12 6 -35 -3 -19 -2 -37 2 -39 16 -10 106 30 105 46 -2 22 -55 87 -76 94 -10
3 -18 10 -18 15 0 12 17 3 57 -32z m-642 21 c27 -7 26 -8 -15 -8 -25 0 -54 3
-65 8 -16 7 -13 9 15 8 19 0 49 -4 65 -8z m-2761 -55 c-4 -8 -8 -15 -10 -15
-2 0 -4 7 -4 15 0 8 4 15 10 15 5 0 7 -7 4 -15z m4014 -27 l35 -21 -34 -18
c-19 -9 -52 -18 -74 -19 -75 -5 -178 35 -145 55 51 31 170 33 218 3z m-1740
-40 c-3 -7 -10 -13 -16 -12 -7 1 -21 2 -33 3 -31 2 -15 16 21 19 22 2 31 -1
28 -10z m72 2 c0 -5 -4 -10 -10 -10 -5 0 -10 5 -10 10 0 6 5 10 10 10 6 0 10
-4 10 -10z m-2990 -47 c0 -13 -3 -13 -15 -3 -8 7 -15 16 -15 21 0 5 7 6 15 3
8 -4 15 -13 15 -21z m3137 -70 c-16 -16 -17 -16 -17 3 0 26 11 37 24 24 7 -7
5 -16 -7 -27z m213 -29 c0 -9 -5 -14 -12 -12 -18 6 -21 28 -4 28 9 0 16 -7 16
-16z m74 -31 c4 -9 2 -21 -4 -27 -16 -16 -13 -49 5 -43 8 4 17 2 20 -3 8 -14
-38 -13 -52 1 -8 8 -13 8 -17 0 -4 -6 -12 -11 -19 -11 -8 0 -8 3 1 12 18 18
14 38 -8 38 -11 0 -20 5 -20 11 0 6 7 9 15 5 9 -3 19 3 25 14 13 24 46 26 54
3z m452 -44 c3 -6 0 -15 -7 -20 -13 -7 -28 5 -29 24 0 11 28 8 36 -4z m79 -18
c10 -17 -12 -21 -25 -6 -10 12 -10 15 3 15 9 0 18 -4 22 -9z m410 -1 c3 -5 -1
-10 -10 -10 -9 0 -13 5 -10 10 3 6 8 10 10 10 2 0 7 -4 10 -10z m-452 -14 c4
-10 1 -13 -9 -9 -15 6 -19 23 -5 23 5 0 11 -7 14 -14z m-293 -16 c0 -13 -6
-20 -17 -19 -11 0 -13 3 -5 6 6 2 12 11 12 19 0 8 2 14 5 14 3 0 5 -9 5 -20z
m585 -10 c-3 -5 -11 -10 -16 -10 -6 0 -7 5 -4 10 3 6 11 10 16 10 6 0 7 -4 4
-10z m-110 -30 c-4 -12 0 -22 11 -28 15 -8 15 -10 -2 -16 -22 -8 -30 5 -28 41
3 36 2 35 14 28 6 -4 8 -15 5 -25z m-1275 -172 c0 -4 -3 -8 -7 -8 -5 0 -18 -3
-30 -6 -18 -5 -23 -2 -23 13 0 11 3 22 6 26 8 7 54 -13 54 -25z"/>
<path d="M9685 4051 c-3 -5 -1 -12 5 -16 5 -3 10 1 10 9 0 18 -6 21 -15 7z"/>
<path d="M9698 2513 c7 -3 16 -2 19 1 4 3 -2 6 -13 5 -11 0 -14 -3 -6 -6z"/>
<path d="M9040 1755 c0 -11 11 -15 40 -15 29 0 40 4 40 15 0 11 -11 15 -40 15
-29 0 -40 -4 -40 -15z"/>
<path d="M8205 650 c3 -5 10 -10 16 -10 5 0 9 5 9 10 0 6 -7 10 -16 10 -8 0
-12 -4 -9 -10z"/>
<path d="M11674 6719 c3 -17 6 -35 6 -40 0 -5 18 -9 40 -9 31 0 40 -4 40 -17
1 -20 73 -59 78 -43 2 6 21 10 41 10 30 0 40 5 51 25 12 23 27 30 58 26 8 -1
12 12 12 39 l0 40 -166 0 -166 0 6 -31z"/>
<path d="M5496 6708 c-19 -30 -31 -78 -19 -78 8 0 21 24 51 92 8 18 -19 6 -32
-14z"/>
<path d="M2495 6693 c-44 -10 -51 -15 -30 -23 16 -6 13 -8 -17 -14 -46 -8
-128 -86 -128 -121 0 -13 -3 -30 -6 -38 -3 -8 6 -27 20 -43 20 -23 27 -27 37
-16 7 6 33 12 58 12 101 1 150 28 204 112 33 52 14 99 -46 115 -23 7 -49 14
-57 16 -8 3 -24 3 -35 0z"/>
<path d="M11622 6570 c0 -14 2 -19 5 -12 2 6 2 18 0 25 -3 6 -5 1 -5 -13z"/>
<path d="M8065 6500 c-3 -5 -1 -10 4 -10 6 0 11 5 11 10 0 6 -2 10 -4 10 -3 0
-8 -4 -11 -10z"/>
<path d="M8052 6468 c-5 -7 -13 -26 -16 -43 -9 -50 -18 -75 -27 -75 -5 0 -9
-6 -9 -13 0 -7 -8 -17 -19 -24 -10 -7 -24 -34 -31 -61 -10 -45 -35 -84 -58
-93 -5 -2 -12 -19 -15 -37 -5 -24 -3 -34 8 -38 8 -4 15 -13 15 -20 0 -11 5
-12 18 -6 9 5 32 12 51 16 43 8 60 31 61 79 0 20 4 37 9 37 5 0 11 12 14 28 3
15 15 38 26 51 13 15 21 38 21 61 0 20 7 45 15 56 17 23 19 44 4 44 -6 0 -17
6 -25 14 -8 8 -14 19 -14 25 0 15 -15 14 -28 -1z"/>
<path d="M3200 6411 c0 -11 5 -23 10 -26 6 -4 10 5 10 19 0 14 -4 26 -10 26
-5 0 -10 -9 -10 -19z"/>
<path d="M3233 6414 c-6 -16 12 -34 35 -34 6 0 12 11 12 25 0 18 -5 25 -20 25
-11 0 -23 -7 -27 -16z"/>
<path d="M1761 6374 c0 -11 3 -14 6 -6 3 7 2 16 -1 19 -3 4 -6 -2 -5 -13z"/>
<path d="M8311 6319 c-16 -36 -9 -48 14 -25 9 9 13 16 9 16 -5 0 -3 5 4 12 16
16 15 28 -1 28 -6 0 -18 -14 -26 -31z"/>
<path d="M8298 6263 c6 -2 18 -2 25 0 6 3 1 5 -13 5 -14 0 -19 -2 -12 -5z"/>
<path d="M8265 6230 c3 -5 8 -10 11 -10 2 0 4 5 4 10 0 6 -5 10 -11 10 -5 0
-7 -4 -4 -10z"/>
<path d="M8227 6208 c-3 -9 -1 -19 6 -22 7 -2 2 -5 -10 -5 -21 -1 -34 -20 -15
-22 4 0 17 -2 30 -5 15 -2 21 0 17 6 -4 6 -1 17 5 25 10 12 9 15 -3 15 -8 0
-17 5 -19 12 -3 8 -7 6 -11 -4z"/>
<path d="M7 5993 c-4 -3 -7 -69 -7 -145 l0 -138 40 40 c23 23 40 50 40 63 0
13 5 28 11 34 13 13 4 47 -11 38 -11 -7 -43 52 -35 65 16 26 -18 64 -38 43z"/>
<path d="M9650 5922 c0 -4 14 -13 30 -19 33 -12 41 0 11 17 -23 12 -41 13 -41
2z"/>
<path d="M11780 5893 c-86 -4 -106 -9 -129 -34 -14 -15 -37 -97 -32 -116 0 -2
-6 -24 -14 -50 -8 -27 -17 -84 -20 -128 -9 -123 -13 -139 -44 -174 -25 -27
-36 -32 -82 -35 -102 -5 -119 -26 -148 -184 -14 -79 -32 -143 -51 -181 -39
-77 -47 -132 -26 -162 26 -38 17 -77 -31 -128 -45 -48 -58 -91 -58 -188 0 -60
-4 -96 -12 -104 -7 -7 -13 -22 -13 -33 0 -11 -12 -55 -27 -97 -25 -74 -26 -78
-9 -103 10 -16 26 -26 41 -26 13 0 27 -5 31 -11 8 -14 43 28 44 52 0 9 6 32
14 50 8 19 15 61 17 94 1 33 6 65 11 71 5 7 8 16 7 20 -4 21 2 35 12 29 6 -4
13 2 16 13 3 11 11 23 19 26 7 3 11 12 8 20 -3 8 5 40 19 70 24 52 57 83 77
71 5 -3 11 -1 15 5 3 5 17 10 29 10 18 0 24 6 24 23 0 13 10 53 22 90 22 64
22 68 7 115 -16 48 -16 66 -2 147 8 42 41 105 55 105 5 0 12 -4 15 -10 10 -16
21 -12 32 12 6 15 12 18 17 10 4 -7 2 -12 -3 -12 -6 0 -11 -5 -11 -11 0 -8 4
-8 14 0 9 8 16 38 19 79 6 101 27 182 59 228 31 44 32 54 12 200 -9 69 21 132
78 164 47 26 60 23 81 -23 18 -36 26 -185 11 -208 -4 -7 -6 -33 -5 -58 3 -59
24 -77 85 -73 l46 4 0 218 0 217 -61 7 c-34 3 -69 5 -78 4 -9 -1 -45 -3 -81
-5z"/>
<path d="M9556 5831 c-5 -7 3 -11 20 -11 15 0 33 -8 40 -17 9 -13 16 -15 24
-7 8 8 7 14 -3 22 -21 18 -73 26 -81 13z"/>
<path d="M9340 5810 c0 -6 12 -16 26 -22 21 -10 27 -9 35 3 15 24 10 29 -26
29 -19 0 -35 -5 -35 -10z"/>
<path d="M9710 5789 c0 -5 -6 -7 -12 -3 -7 4 -2 -5 11 -20 28 -30 50 -21 32
13 -12 22 -31 28 -31 10z"/>
<path d="M9810 5796 c0 -2 7 -6 15 -10 8 -3 15 -1 15 4 0 6 -7 10 -15 10 -8 0
-15 -2 -15 -4z"/>
<path d="M9468 5783 c7 -3 16 -2 19 1 4 3 -2 6 -13 5 -11 0 -14 -3 -6 -6z"/>
<path d="M9670 5725 c0 -3 10 -15 22 -27 17 -17 20 -18 15 -4 -4 10 -7 22 -7
27 0 5 -7 9 -15 9 -8 0 -15 -2 -15 -5z"/>
<path d="M8600 5709 c0 -5 5 -7 10 -4 6 3 10 8 10 11 0 2 -4 4 -10 4 -5 0 -10
-5 -10 -11z"/>
<path d="M4623 5658 c-4 -7 -13 -26 -18 -43 -10 -30 -11 -30 -80 -30 -55 0
-78 -5 -107 -23 -45 -28 -52 -46 -33 -85 8 -16 15 -37 15 -46 0 -9 7 -25 15
-35 8 -11 15 -27 15 -37 0 -24 25 -41 63 -42 26 -1 45 8 77 36 47 40 73 45
104 22 11 -8 28 -15 37 -15 23 0 105 94 129 147 21 48 20 51 -65 98 -125 70
-137 75 -152 53z"/>
<path d="M9280 5649 c0 -5 5 -7 10 -4 6 3 10 8 10 11 0 2 -4 4 -10 4 -5 0 -10
-5 -10 -11z"/>
<path d="M9870 5650 c0 -5 5 -10 10 -10 6 0 10 5 10 10 0 6 -4 10 -10 10 -5 0
-10 -4 -10 -10z"/>
<path d="M9655 5639 c-4 -6 -5 -12 -2 -15 2 -3 7 2 10 11 7 17 1 20 -8 4z"/>
<path d="M9407 5601 c-3 -14 -1 -18 9 -14 8 3 14 0 14 -6 0 -6 5 -11 12 -11 9
0 9 3 1 11 -6 6 -9 18 -6 25 3 8 -1 14 -10 14 -8 0 -17 -9 -20 -19z"/>
<path d="M9945 5595 c41 -33 61 -33 39 0 -11 16 -26 25 -43 25 l-26 0 30 -25z"/>
<path d="M9850 5590 c0 -5 5 -10 11 -10 5 0 7 5 4 10 -3 6 -8 10 -11 10 -2 0
-4 -4 -4 -10z"/>
<path d="M2880 5530 c0 -5 6 -10 14 -10 8 0 18 5 21 10 3 6 -3 10 -14 10 -12
0 -21 -4 -21 -10z"/>
<path d="M9652 5500 c-18 -16 -28 -30 -21 -30 7 0 21 -7 31 -17 17 -15 18 -15
18 0 0 10 -4 17 -10 17 -5 0 -10 7 -10 15 0 10 10 15 30 15 20 0 30 5 30 15 0
24 -33 17 -68 -15z"/>
<path d="M9840 5520 c0 -5 5 -10 10 -10 6 0 10 5 10 10 0 6 -4 10 -10 10 -5 0
-10 -4 -10 -10z"/>
<path d="M9691 5474 c0 -11 3 -14 6 -6 3 7 2 16 -1 19 -3 4 -6 -2 -5 -13z"/>
<path d="M9750 5471 c0 -5 -2 -15 -5 -23 -3 -7 5 -19 17 -27 21 -13 22 -13 9
2 -7 9 -11 26 -8 37 3 11 1 20 -4 20 -5 0 -9 -4 -9 -9z"/>
<path d="M9901 5424 c-11 -13 -10 -17 5 -29 22 -16 32 -11 16 8 -9 10 -8 17 0
25 7 7 8 12 3 12 -6 -1 -16 -8 -24 -16z"/>
<path d="M9954 5394 c3 -9 6 -18 6 -20 0 -3 5 -2 10 1 16 10 12 35 -6 35 -11
0 -14 -5 -10 -16z"/>
<path d="M9996 5381 c-3 -5 1 -12 10 -15 20 -8 29 -1 19 13 -8 13 -22 14 -29
2z"/>
<path d="M9993 5347 c5 -15 37 -22 37 -9 0 5 -9 12 -21 15 -13 3 -19 1 -16 -6z"/>
<path d="M10956 5335 c-3 -9 -6 -24 -5 -33 0 -9 5 -4 10 12 9 32 6 48 -5 21z"/>
<path d="M9926 5315 c4 -8 8 -15 10 -15 2 0 4 7 4 15 0 8 -4 15 -10 15 -5 0
-7 -7 -4 -15z"/>
<path d="M9780 5205 c0 -9 6 -12 15 -9 8 4 15 10 15 15 0 5 -7 9 -15 9 -8 0
-15 -7 -15 -15z"/>
<path d="M10122 5184 c-23 -16 -29 -34 -12 -34 6 0 10 7 10 15 0 8 9 15 20 15
11 0 20 -4 20 -10 0 -5 5 -10 10 -10 6 0 10 9 10 20 0 24 -26 26 -58 4z"/>
<path d="M10916 5153 c-18 -51 -21 -99 -7 -107 17 -11 33 24 38 82 7 75 -10
88 -31 25z"/>
<path d="M9960 5156 c0 -16 7 -27 21 -31 22 -7 43 5 22 12 -7 3 -13 13 -13 24
0 10 -7 19 -15 19 -9 0 -15 -9 -15 -24z"/>
<path d="M9770 5140 c0 -5 5 -10 10 -10 6 0 10 5 10 10 0 6 -4 10 -10 10 -5 0
-10 -4 -10 -10z"/>
<path d="M4345 5069 c-122 -76 -126 -83 -56 -118 20 -11 60 -40 89 -66 59 -53
69 -52 136 19 22 22 43 40 48 39 9 -3 11 42 2 75 -8 30 -39 29 -99 -4 -75 -40
-98 -18 -45 43 31 35 39 64 18 62 -7 0 -49 -23 -93 -50z"/>
<path d="M9951 5074 c0 -11 3 -14 6 -6 3 7 2 16 -1 19 -3 4 -6 -2 -5 -13z"/>
<path d="M9640 5030 c0 -5 7 -7 15 -4 8 4 15 8 15 10 0 2 -7 4 -15 4 -8 0 -15
-4 -15 -10z"/>
<path d="M9495 5011 c-10 -9 -4 -19 14 -24 13 -3 21 1 24 12 3 11 -2 17 -15
17 -10 0 -21 -2 -23 -5z"/>
<path d="M9710 5002 c0 -4 9 -8 19 -8 11 0 17 4 15 8 -3 4 -12 8 -20 8 -8 0
-14 -4 -14 -8z"/>
<path d="M9864 5003 c-6 -2 5 -22 25 -44 22 -24 37 -35 40 -27 2 7 9 16 15 21
20 13 -53 59 -80 50z"/>
<path d="M9810 4990 c-9 -6 -10 -10 -3 -10 6 0 15 5 18 10 8 12 4 12 -15 0z"/>
<path d="M9770 4970 c0 -5 5 -10 11 -10 5 0 7 5 4 10 -3 6 -8 10 -11 10 -2 0
-4 -4 -4 -10z"/>
<path d="M9960 4970 c0 -5 5 -10 11 -10 5 0 7 5 4 10 -3 6 -8 10 -11 10 -2 0
-4 -4 -4 -10z"/>
<path d="M1380 4940 c0 -5 5 -10 10 -10 6 0 10 5 10 10 0 6 -4 10 -10 10 -5 0
-10 -4 -10 -10z"/>
<path d="M2773 4903 c-21 -27 -44 -52 -51 -56 -6 -4 -18 -20 -25 -35 -12 -24
-12 -29 3 -43 16 -15 20 -14 46 12 40 39 54 57 54 67 0 6 7 23 15 38 35 68 8
78 -42 17z"/>
<path d="M9696 4915 c4 -8 1 -15 -5 -15 -6 0 -11 -7 -11 -15 0 -8 -4 -15 -10
-15 -5 0 -10 7 -10 15 0 8 -4 15 -10 15 -5 0 -10 -5 -10 -11 0 -6 -9 -9 -19
-6 -15 3 -19 0 -18 -14 1 -13 6 -18 17 -14 33 14 49 8 60 -20 5 -14 15 -25 21
-25 8 0 8 4 0 14 -10 12 -8 15 11 18 19 2 23 10 26 46 3 39 1 42 -22 42 -18 0
-24 -4 -20 -15z"/>
<path d="M9857 4907 c-4 -10 -2 -17 4 -17 6 0 9 -9 6 -19 -2 -10 -1 -25 4 -32
8 -12 11 -11 19 1 13 20 12 26 -3 42 -8 7 -16 20 -19 28 -3 11 -6 11 -11 -3z"/>
<path d="M9220 4889 c0 -11 5 -17 10 -14 6 3 10 13 10 21 0 8 -4 14 -10 14 -5
0 -10 -9 -10 -21z"/>
<path d="M9770 4900 c0 -5 5 -10 11 -10 5 0 7 5 4 10 -3 6 -8 10 -11 10 -2 0
-4 -4 -4 -10z"/>
<path d="M9566 4828 c7 -11 34 -10 34 1 0 6 -9 9 -19 8 -11 0 -17 -5 -15 -9z"/>
<path d="M1261 4813 c-12 -8 -32 -33 -45 -56 -20 -34 -23 -51 -19 -89 3 -27 8
-48 12 -48 23 1 121 154 121 189 0 23 -40 25 -69 4z"/>
<path d="M9695 4790 c-3 -5 1 -10 10 -10 9 0 13 5 10 10 -3 6 -8 10 -10 10 -2
0 -7 -4 -10 -10z"/>
<path d="M9745 4790 c3 -5 8 -10 11 -10 2 0 4 5 4 10 0 6 -5 10 -11 10 -5 0
-7 -4 -4 -10z"/>
<path d="M9681 4743 c-1 -6 -4 -19 -8 -29 -4 -11 -3 -15 5 -10 6 3 27 -8 47
-25 24 -21 39 -29 46 -22 12 12 2 60 -14 70 -6 3 -7 1 -3 -5 5 -8 -3 -12 -26
-11 -23 1 -26 3 -10 6 23 5 29 18 12 28 -5 3 -10 1 -10 -4 0 -15 -27 -14 -33
2 -4 8 -6 8 -6 0z"/>
<path d="M9505 4670 c-4 -12 -5 -24 -2 -27 3 -2 8 5 12 17 4 12 5 24 2 27 -3
2 -8 -5 -12 -17z"/>
<path d="M9635 4680 c-3 -5 -1 -10 4 -10 6 0 11 5 11 10 0 6 -2 10 -4 10 -3 0
-8 -4 -11 -10z"/>
<path d="M3452 4660 c-29 -28 -28 -42 7 -63 30 -18 140 -47 179 -47 19 0 23 5
20 26 -2 21 -18 34 -76 65 -83 45 -100 47 -130 19z"/>
<path d="M9532 4660 c0 -14 2 -19 5 -12 2 6 2 18 0 25 -3 6 -5 1 -5 -13z"/>
<path d="M1773 4629 c-11 -22 -18 -49 -16 -60 5 -17 7 -17 34 -3 16 8 29 21
29 28 0 7 3 28 6 45 6 26 3 31 -13 31 -12 0 -26 -14 -40 -41z"/>
<path d="M9302 4640 c0 -14 2 -19 5 -12 2 6 2 18 0 25 -3 6 -5 1 -5 -13z"/>
<path d="M11577 4642 c-13 -14 -17 -33 -15 -66 2 -25 6 -46 9 -46 16 0 39 88
30 113 -6 17 -8 17 -24 -1z"/>
<path d="M9582 4630 c0 -14 2 -19 5 -12 2 6 2 18 0 25 -3 6 -5 1 -5 -13z"/>
<path d="M9675 4640 c-2 -3 7 -7 20 -8 13 -1 26 2 29 7 3 5 -6 8 -20 7 -14 0
-27 -3 -29 -6z"/>
<path d="M9550 4580 c0 -6 7 -10 15 -10 8 0 15 2 15 4 0 2 -7 6 -15 10 -8 3
-15 1 -15 -4z"/>
<path d="M9681 4583 c0 -5 4 -17 9 -28 8 -18 9 -17 9 8 1 15 -3 27 -9 27 -5 0
-10 -3 -9 -7z"/>
<path d="M9391 4564 c0 -11 3 -14 6 -6 3 7 2 16 -1 19 -3 4 -6 -2 -5 -13z"/>
<path d="M9510 4540 c0 -5 5 -10 11 -10 5 0 7 5 4 10 -3 6 -8 10 -11 10 -2 0
-4 -4 -4 -10z"/>
<path d="M9415 4531 c-3 -5 -1 -12 5 -16 5 -3 10 1 10 9 0 18 -6 21 -15 7z"/>
<path d="M9629 4521 c-8 -9 -13 -23 -11 -29 2 -7 -1 -12 -6 -12 -5 0 -13 -7
-16 -16 -3 -8 -2 -12 4 -9 6 3 10 1 10 -5 0 -6 6 -10 13 -8 7 2 14 0 15 -4 5
-17 1 -28 -9 -28 -5 0 -7 5 -4 10 3 6 1 10 -4 10 -6 0 -11 -6 -11 -14 0 -9
-12 -16 -27 -18 -19 -2 -28 -8 -27 -20 1 -10 -2 -15 -7 -12 -5 3 -9 -2 -9 -10
0 -9 -4 -16 -9 -16 -5 0 -11 -8 -15 -17 -3 -10 -9 -25 -12 -33 -3 -8 3 -5 14
7 11 12 22 19 26 16 3 -4 6 1 6 11 0 9 4 15 9 12 5 -3 14 8 20 24 9 28 41 43
41 20 0 -18 22 -10 27 10 3 11 9 20 14 20 5 0 6 14 3 30 -5 24 -3 30 11 30 10
0 16 3 13 6 -5 5 -14 7 -48 13 -3 1 2 6 10 11 9 6 11 10 3 10 -7 0 -10 7 -7
15 8 19 3 18 -17 -4z"/>
<path d="M1893 4476 l-31 -44 35 -4 c28 -3 40 1 59 21 13 14 24 36 24 48 0 19
-6 23 -28 23 -22 0 -35 -10 -59 -44z"/>
<path d="M9436 4445 c-3 -8 -1 -15 4 -15 6 0 10 7 10 15 0 8 -2 15 -4 15 -2 0
-6 -7 -10 -15z"/>
<path d="M9735 4430 c3 -5 10 -10 16 -10 5 0 9 5 9 10 0 6 -7 10 -16 10 -8 0
-12 -4 -9 -10z"/>
<path d="M9322 4421 c-11 -7 -11 -9 1 -14 9 -3 18 1 21 9 6 16 -2 18 -22 5z"/>
<path d="M1763 4355 c-32 -30 -63 -55 -70 -55 -8 0 -11 -22 -10 -69 l2 -68
-58 -76 c-52 -67 -70 -84 -95 -87 -25 -4 -42 -37 -42 -82 0 -32 -4 -48 -12
-48 -11 0 -95 -122 -107 -154 -18 -49 -85 -174 -105 -195 -13 -14 -47 -71 -76
-126 -28 -55 -67 -116 -86 -135 -19 -20 -34 -41 -34 -46 0 -6 -11 -24 -25 -40
-14 -16 -31 -47 -39 -70 -23 -68 -61 -121 -93 -127 -15 -3 -29 -4 -30 -3 -2 1
6 21 17 44 11 23 19 45 18 49 -3 12 33 83 43 83 15 0 39 71 39 116 0 24 -3 44
-7 44 -10 0 -77 -51 -95 -74 -17 -20 -18 -20 -45 -4 -35 21 -79 42 -120 58
-18 7 -33 17 -33 22 0 5 22 41 49 81 27 40 59 93 70 118 12 25 35 59 51 74 38
37 60 28 60 -24 0 -61 37 -60 92 1 66 73 73 167 13 178 -26 5 -30 9 -27 35 4
43 100 234 139 278 41 45 36 87 -11 87 -25 0 -79 -70 -124 -161 -43 -85 -143
-202 -187 -219 -20 -7 -45 9 -45 29 0 5 -9 13 -20 16 -23 7 -26 37 -6 58 8 7
28 40 45 73 18 32 47 84 65 114 44 70 53 100 32 100 -9 0 -16 -4 -16 -8 0 -5
-12 -15 -27 -23 -72 -38 -133 -142 -133 -224 0 -25 -3 -44 -7 -43 -17 6 -100
-89 -112 -127 -18 -59 -32 -84 -50 -90 -26 -8 -68 -88 -80 -151 -18 -92 -33
-138 -50 -154 -20 -18 -37 -55 -46 -95 -9 -44 -28 -85 -40 -85 -33 0 -119
-123 -113 -162 3 -21 9 -23 70 -26 81 -3 86 -14 30 -73 -44 -48 -96 -60 -155
-36 -31 14 -37 21 -37 46 0 34 -11 39 -30 16 -7 -8 -17 -15 -23 -15 -5 0 -25
-11 -44 -26 l-33 -25 0 -113 c0 -139 10 -166 58 -159 32 6 34 5 27 -18 -4 -13
-25 -57 -46 -97 l-39 -74 0 -476 0 -477 23 27 c12 15 40 48 61 73 54 65 108
155 110 186 1 14 16 43 33 65 46 57 50 164 5 147 -24 -10 -132 -115 -126 -124
2 -4 -5 -10 -16 -14 -12 -4 -20 -16 -21 -28 0 -12 -3 -16 -6 -9 -2 6 -9 10
-13 7 -14 -9 9 60 47 140 20 42 59 95 94 127 16 15 29 34 29 42 0 9 5 16 11
16 6 0 9 9 6 20 -3 11 5 32 20 52 13 18 34 54 46 81 12 26 25 47 29 47 5 0 8
6 8 13 0 15 39 51 48 43 8 -8 -26 -78 -54 -111 -30 -35 -30 -36 1 -84 28 -46
42 -56 72 -56 31 0 31 -17 0 -35 -15 -8 -44 -35 -65 -60 -32 -37 -38 -49 -31
-68 14 -36 35 -36 77 -1 22 18 55 38 73 45 l34 11 1 94 c0 52 6 107 12 122 19
46 15 114 -8 137 l-20 20 35 35 c19 19 36 35 39 35 8 0 28 -71 22 -77 -7 -8
12 -43 24 -43 17 0 62 78 58 102 -2 13 -7 22 -13 21 -5 -1 -14 5 -18 13 -4 8
-21 14 -37 14 -34 0 -36 6 -14 38 15 22 15 22 -15 17 -30 -5 -42 7 -21 20 21
13 9 25 -18 19 l-27 -7 21 24 c39 46 72 105 99 177 15 41 33 76 40 78 18 7 41
96 29 115 -10 16 -35 -5 -56 -45 -24 -47 -86 -133 -115 -158 -32 -29 -88 -28
-98 2 -3 11 -11 19 -17 17 -5 -1 -15 5 -21 14 -16 24 42 111 85 128 18 7 49
34 68 59 19 26 40 52 45 58 6 6 20 23 32 38 13 14 27 26 31 26 5 0 33 -22 62
-50 59 -56 60 -61 14 -158 -17 -35 -24 -67 -23 -92 2 -21 -2 -44 -8 -52 -6 -7
-14 -24 -18 -38 -5 -18 12 -5 64 49 39 40 71 78 71 83 0 11 29 42 35 37 2 -2
6 -16 10 -30 5 -20 0 -34 -22 -60 -15 -19 -33 -38 -40 -42 -7 -4 -13 -16 -13
-26 0 -24 -29 -81 -41 -81 -5 0 -9 -7 -9 -15 0 -8 -7 -15 -15 -15 -8 0 -15 -4
-15 -10 0 -14 -37 -50 -51 -50 -6 0 -8 -7 -5 -16 3 -9 6 -21 6 -29 0 -21 45
-23 70 -3 12 10 19 18 16 18 -4 0 17 29 47 64 33 41 63 92 81 138 16 40 36 82
46 93 9 11 31 46 49 77 17 31 44 67 59 80 27 23 132 152 132 163 0 3 15 27 33
53 18 26 46 73 63 106 16 32 45 77 66 100 20 23 44 56 55 73 10 18 42 74 72
125 30 51 62 102 71 113 9 11 27 47 40 79 13 33 38 78 54 100 66 86 156 246
140 246 -3 0 4 16 16 36 12 19 20 38 16 41 -3 4 -6 0 -6 -7 0 -7 -3 -10 -7 -7
-3 4 4 17 15 29 53 55 85 95 93 116 13 35 11 62 -6 62 -8 0 -15 7 -15 15 0 26
-18 17 -77 -40z m-983 -660 c19 -12 5 -57 -39 -129 -22 -35 -51 -87 -65 -114
-14 -27 -44 -66 -68 -85 -38 -32 -45 -34 -58 -22 -12 13 -12 21 -1 57 7 24 13
50 15 59 1 9 12 32 24 52 12 20 17 37 12 37 -14 0 -12 27 4 63 22 49 29 71 28
79 -1 4 4 5 12 2 8 -3 17 0 21 6 7 12 94 8 115 -5z m-289 -495 c24 -13 25 -56
1 -90 -54 -80 -95 -93 -108 -37 -10 40 -5 108 8 125 13 15 72 16 99 2z m-84
-599 c-9 -14 -27 -47 -41 -72 -14 -25 -36 -59 -49 -75 -13 -16 -39 -57 -57
-92 -19 -35 -52 -79 -74 -98 -42 -36 -59 -38 -129 -18 -22 7 -16 31 21 90 31
51 61 72 73 52 6 -9 9 -9 9 -1 0 6 9 15 20 18 25 8 46 39 55 82 5 28 4 32 -9
27 -14 -5 -15 -2 -7 17 45 114 57 129 106 122 17 -2 42 0 55 5 35 14 51 -19
27 -57z m33 -181 c-6 -11 -15 -20 -21 -20 -6 0 -6 7 1 20 6 11 15 20 21 20 6
0 6 -7 -1 -20z m36 -47 c-10 -10 -19 5 -10 18 6 11 8 11 12 0 2 -7 1 -15 -2
-18z m-76 -203 c0 -5 -5 -10 -11 -10 -5 0 -7 5 -4 10 3 6 8 10 11 10 2 0 4 -4
4 -10z"/>
<path d="M9137 4360 c-3 -12 0 -20 8 -20 7 0 15 9 18 20 3 12 0 20 -8 20 -7 0
-15 -9 -18 -20z"/>
<path d="M8862 4339 c-12 -18 -11 -20 5 -17 10 2 19 11 21 21 5 23 -10 21 -26
-4z"/>
<path d="M8993 4348 c-13 -6 -25 -20 -29 -30 -3 -11 -20 -36 -37 -56 -17 -20
-25 -31 -17 -24 8 6 21 12 30 12 22 0 47 28 55 63 4 15 13 27 20 27 8 0 17 5
20 10 8 13 -14 12 -42 -2z"/>
<path d="M3032 4300 c-29 -28 -52 -55 -52 -59 0 -4 -18 -27 -41 -52 -52 -57
-81 -102 -137 -212 -25 -50 -67 -114 -94 -144 -26 -29 -48 -58 -48 -64 0 -5
-4 -8 -8 -5 -4 2 -13 -24 -20 -59 -7 -36 -22 -81 -34 -102 -12 -21 -33 -58
-46 -83 -14 -25 -44 -65 -66 -90 -60 -64 -128 -158 -155 -210 -13 -25 -36 -61
-51 -80 -15 -19 -47 -71 -70 -115 -24 -44 -64 -108 -91 -141 -26 -34 -62 -90
-80 -125 -17 -35 -48 -84 -69 -109 -35 -42 -123 -181 -178 -280 -14 -25 -39
-61 -56 -81 -66 -76 -76 -90 -97 -131 -20 -40 -48 -84 -125 -196 -16 -23 -38
-59 -50 -80 -11 -21 -29 -38 -41 -40 -20 -3 -20 -1 -8 34 17 50 10 71 -16 48
-11 -9 -19 -25 -19 -34 0 -10 -7 -31 -15 -46 -8 -16 -15 -51 -15 -77 0 -67
-19 -104 -82 -163 -55 -51 -72 -81 -58 -105 11 -16 -29 -74 -104 -153 -30 -33
-58 -69 -62 -80 -23 -77 -91 -191 -154 -259 -39 -41 -70 -82 -70 -92 0 -22
-17 -54 -53 -94 -16 -19 -49 -65 -73 -102 -43 -67 -77 -98 -89 -80 -3 5 8 29
24 54 17 24 45 75 64 114 18 38 43 83 54 99 12 17 25 42 28 57 4 14 16 29 26
32 21 7 26 35 6 35 -21 0 -101 -89 -153 -170 -26 -41 -56 -83 -66 -93 -10 -10
-30 -37 -45 -60 -14 -23 -38 -61 -53 -84 -38 -57 -45 -81 -27 -101 15 -17 29
-104 15 -96 -5 3 -8 2 -8 -3 0 -4 -40 -8 -89 -7 -97 0 -121 10 -121 50 0 29
-14 38 -30 19 -16 -19 -33 -19 -72 1 -29 15 -32 15 -59 -5 -33 -25 -35 -22
-14 19 8 16 12 36 9 44 -5 14 -9 13 -30 -1 -19 -12 -28 -13 -37 -4 -22 22 -27
9 -27 -80 0 -63 3 -88 11 -83 8 4 9 -9 4 -47 -3 -30 -8 -103 -11 -164 -5 -104
-4 -109 12 -87 9 13 19 35 23 50 4 15 12 27 17 27 15 0 16 -36 1 -53 -19 -22
-27 -70 -13 -75 17 -6 36 3 36 19 0 8 4 22 10 32 5 9 14 29 20 45 8 24 14 27
54 27 43 0 45 -1 48 -32 2 -17 8 -33 14 -35 18 -6 80 87 94 142 15 56 55 139
46 95 -5 -24 -4 -24 9 -6 11 14 12 23 4 33 -17 20 3 15 30 -8 l24 -19 -33 -65
c-18 -35 -41 -72 -51 -81 -10 -9 -21 -29 -24 -44 -3 -16 -17 -39 -29 -52 -13
-13 -31 -36 -41 -51 l-18 -28 144 3 144 3 20 33 c23 38 253 390 330 507 29 44
56 91 60 105 9 33 82 166 112 206 22 29 61 97 151 264 19 36 58 101 87 145 85
130 149 237 174 287 12 26 42 69 65 95 50 56 82 106 116 183 40 88 96 185 195
335 51 77 110 172 131 210 42 78 204 325 231 353 51 51 154 218 226 362 37 74
89 163 116 196 31 38 58 86 71 124 11 34 38 85 58 114 21 28 64 92 97 141 32
50 66 99 76 110 10 11 38 61 64 110 26 50 59 104 73 121 44 51 97 136 117 188
11 27 30 62 43 78 25 29 25 30 6 48 -39 37 -57 34 -112 -20z m-2804 -3900 c6
0 12 -8 12 -17 0 -10 12 -38 25 -62 36 -62 15 -111 -46 -111 -22 0 -32 -6 -39
-25 -12 -32 -21 -32 -49 5 -22 30 -22 31 -4 88 10 31 22 60 28 64 5 4 6 8 1 8
-6 0 -5 5 2 12 7 7 12 21 12 31 0 15 5 18 23 13 12 -3 28 -6 35 -6z"/>
<path d="M9440 4340 c0 -5 5 -10 10 -10 6 0 10 5 10 10 0 6 -4 10 -10 10 -5 0
-10 -4 -10 -10z"/>
<path d="M9390 4315 c0 -8 5 -15 10 -15 6 0 10 7 10 15 0 8 -4 15 -10 15 -5 0
-10 -7 -10 -15z"/>
<path d="M8875 4310 c-3 -5 1 -10 9 -10 9 0 16 5 16 10 0 6 -4 10 -9 10 -6 0
-13 -4 -16 -10z"/>
<path d="M9086 4305 c-17 -17 -22 -45 -8 -45 11 0 37 48 30 55 -3 3 -13 -1
-22 -10z"/>
<path d="M1537 4260 c-41 -42 -47 -54 -41 -77 4 -16 9 -31 11 -35 11 -20 47
-3 98 47 47 45 55 59 49 77 -17 54 -58 50 -117 -12z"/>
<path d="M950 4251 c-12 -23 -13 -61 -2 -61 7 0 42 63 42 75 0 14 -31 2 -40
-14z"/>
<path d="M9035 4239 c-8 -25 2 -39 11 -15 5 14 9 14 22 4 13 -11 15 -10 9 5
-4 10 -7 21 -7 23 0 14 -30 0 -35 -17z"/>
<path d="M9466 4233 c-3 -10 -9 -24 -12 -30 -3 -7 -1 -13 4 -13 5 0 13 12 16
26 8 30 2 44 -8 17z"/>
<path d="M8900 4210 c0 -5 7 -7 15 -4 8 4 15 8 15 10 0 2 -7 4 -15 4 -8 0 -15
-4 -15 -10z"/>
<path d="M9170 4210 c-9 -6 -10 -10 -3 -10 6 0 15 5 18 10 8 12 4 12 -15 0z"/>
<path d="M920 4193 c0 -13 5 -23 10 -23 13 0 13 11 0 30 -8 12 -10 11 -10 -7z"/>
<path d="M3389 4150 c29 -27 61 -52 70 -55 31 -10 39 -38 31 -111 -4 -38 -6
-70 -5 -72 5 -7 195 99 195 108 0 3 -30 21 -67 39 -38 19 -70 37 -73 40 -3 3
-25 16 -50 29 -25 12 -52 27 -60 32 -21 13 -82 40 -89 40 -3 0 18 -22 48 -50z"/>
<path d="M9092 4168 c-20 -20 -14 -27 12 -15 13 7 22 15 20 19 -7 11 -18 10
-32 -4z"/>
<path d="M9490 4160 c0 -5 9 -14 20 -20 22 -12 27 -1 8 18 -14 14 -28 16 -28
2z"/>
<path d="M600 4153 c-14 -2 -42 -9 -62 -14 -35 -9 -36 -11 -31 -43 3 -20 1
-36 -6 -40 -22 -14 -10 -24 27 -22 52 3 106 36 110 67 2 13 8 29 13 35 5 6 6
14 2 17 -7 7 -11 7 -53 0z"/>
<path d="M8640 4149 c0 -5 5 -7 10 -4 6 3 10 8 10 11 0 2 -4 4 -10 4 -5 0 -10
-5 -10 -11z"/>
<path d="M8680 4150 c-20 -12 -5 -24 16 -12 9 5 12 12 7 15 -5 3 -15 2 -23 -3z"/>
<path d="M7975 4140 c-3 -6 1 -7 9 -4 18 7 21 14 7 14 -6 0 -13 -4 -16 -10z"/>
<path d="M9305 4140 c-3 -5 -2 -10 4 -10 5 0 13 5 16 10 3 6 2 10 -4 10 -5 0
-13 -4 -16 -10z"/>
<path d="M8960 4130 c0 -5 5 -10 10 -10 6 0 10 5 10 10 0 6 -4 10 -10 10 -5 0
-10 -4 -10 -10z"/>
<path d="M8445 4110 c-10 -11 -15 -23 -12 -27 4 -3 7 -1 7 6 0 6 10 15 22 20
12 4 17 11 11 14 -6 4 -18 -2 -28 -13z"/>
<path d="M8710 4119 c0 -5 5 -7 10 -4 6 3 10 8 10 11 0 2 -4 4 -10 4 -5 0 -10
-5 -10 -11z"/>
<path d="M8040 4110 c0 -5 7 -10 15 -10 8 0 15 5 15 10 0 6 -7 10 -15 10 -8 0
-15 -4 -15 -10z"/>
<path d="M11949 4058 c-87 -103 -83 -95 -70 -140 10 -33 10 -42 -1 -49 -16
-11 -38 -12 -37 -1 3 19 -2 33 -10 28 -16 -10 -19 -59 -7 -101 14 -45 8 -71
-24 -112 -15 -19 -20 -41 -20 -82 0 -64 11 -87 34 -78 24 9 29 -14 11 -49 -21
-41 -19 -54 9 -54 25 0 43 25 26 35 -6 4 -10 26 -10 51 0 34 4 44 16 44 10 0
14 5 10 15 -3 9 -1 23 4 33 18 32 40 94 40 113 0 11 3 19 8 19 4 0 15 14 24
30 9 17 24 30 33 30 13 0 15 22 15 160 0 88 -2 160 -3 160 -2 0 -24 -23 -48
-52z"/>
<path d="M8798 4078 c9 -9 15 -9 24 0 9 9 7 12 -12 12 -19 0 -21 -3 -12 -12z"/>
<path d="M8685 4069 c-11 -16 -1 -19 13 -3 7 8 8 14 3 14 -5 0 -13 -5 -16 -11z"/>
<path d="M9000 4070 c0 -6 7 -10 15 -10 8 0 15 2 15 4 0 2 -7 6 -15 10 -8 3
-15 1 -15 -4z"/>
<path d="M9505 4070 c-8 -12 20 -24 35 -15 5 3 10 10 10 16 0 12 -37 12 -45
-1z"/>
<path d="M6827 4063 c-4 -3 -7 -11 -7 -17 0 -6 5 -5 12 2 6 6 9 14 7 17 -3 3
-9 2 -12 -2z"/>
<path d="M8845 4060 c-3 -5 -1 -10 4 -10 6 0 11 5 11 10 0 6 -2 10 -4 10 -3 0
-8 -4 -11 -10z"/>
<path d="M9400 4049 c0 -5 5 -7 10 -4 6 3 10 8 10 11 0 2 -4 4 -10 4 -5 0 -10
-5 -10 -11z"/>
<path d="M8212 4030 c7 -11 17 -20 22 -20 5 0 1 9 -9 20 -10 11 -20 20 -22 20
-2 0 2 -9 9 -20z"/>
<path d="M8708 4032 c-33 -20 -35 -31 -7 -61 25 -26 62 -25 68 4 3 16 1 17
-12 7 -19 -16 -47 -5 -47 18 0 10 10 25 23 33 30 21 9 21 -25 -1z"/>
<path d="M4473 4033 c-16 -6 -16 -31 -2 -89 8 -32 17 -46 33 -49 22 -5 65 -13
79 -14 5 -1 5 -6 2 -11 -4 -6 -34 -10 -68 -11 -122 0 -174 -4 -188 -15 -20
-16 -119 -6 -119 12 0 8 4 14 10 14 10 0 9 35 -2 45 -3 4 -33 1 -66 -5 -52
-11 -63 -10 -83 4 -13 9 -34 16 -47 16 -12 0 -49 11 -82 25 -33 14 -67 25 -77
25 -42 0 -158 -96 -266 -221 -47 -55 -143 -222 -169 -297 -40 -114 -33 -269
17 -379 57 -125 209 -297 335 -378 169 -110 414 -196 667 -234 150 -23 550 -8
579 22 9 9 -29 56 -45 57 -8 0 -20 8 -27 18 -10 14 -10 20 4 35 12 13 13 18 3
15 -16 -4 -32 44 -21 62 11 18 56 -8 107 -61 22 -24 56 -58 74 -76 l34 -32 85
24 c241 66 439 200 515 351 l30 59 2 244 c1 134 4 259 8 277 6 37 -8 74 -29
74 -8 0 -26 17 -42 38 -46 60 -289 302 -304 302 -8 0 -23 -9 -34 -19 -12 -11
-43 -31 -71 -47 -78 -42 -118 -70 -138 -92 -17 -19 -18 -22 -2 -46 9 -14 14
-30 10 -36 -7 -12 -45 -14 -45 -2 0 13 -48 32 -81 32 -29 0 -30 1 -24 34 10
50 -27 82 -190 167 -77 40 -156 82 -175 94 -27 17 -180 78 -184 74 -1 0 -7 -3
-13 -6z m395 -275 c15 -15 16 -68 2 -68 -21 0 -60 33 -60 49 0 32 34 43 58 19z
m-1138 -45 c5 -5 -21 -27 -51 -43 -14 -8 -18 -4 -21 21 -3 22 -1 29 9 25 7 -3
13 -1 13 5 0 9 37 3 50 -8z m909 -31 c14 -26 -4 -42 -46 -42 -26 0 -33 4 -33
20 0 37 62 54 79 22z m161 3 c0 -16 -35 -21 -44 -6 -8 12 4 21 26 21 10 0 18
-7 18 -15z m148 -7 c19 -19 15 -55 -7 -61 -26 -6 -31 0 -31 40 0 34 16 43 38
21z m-1318 -23 c7 -8 9 -22 6 -32 -6 -15 -9 -15 -28 4 -11 12 -17 26 -14 32
10 15 21 14 36 -4z m666 -11 c-3 -9 -6 -19 -6 -23 0 -5 -10 -21 -22 -36 -18
-24 -24 -52 -19 -104 1 -5 13 -16 27 -26 20 -13 32 -14 55 -6 23 8 29 7 29 -5
0 -8 -12 -19 -27 -25 -14 -5 -32 -17 -38 -26 -8 -11 -20 -14 -42 -9 -29 7 -31
11 -38 63 -4 35 -3 59 4 66 6 6 11 19 11 29 0 24 -38 24 -47 1 -3 -10 -13 -26
-20 -35 -15 -17 -10 -58 8 -58 16 0 10 -20 -15 -46 -13 -15 -31 -24 -42 -22
-16 3 -19 13 -20 58 -1 30 0 66 2 80 5 27 55 67 79 62 8 -2 32 15 53 38 39 40
80 55 68 24z m1232 -65 c12 -19 8 -25 -42 -75 -31 -30 -62 -54 -70 -54 -23 0
-44 52 -33 78 6 12 13 22 16 22 3 0 19 11 35 25 36 31 76 33 94 4z m-1148 4
c-1 -12 -51 -46 -57 -39 -4 3 -1 6 5 6 7 0 12 9 12 20 0 13 7 20 20 20 11 0
20 -3 20 -7z m-449 -184 c27 -27 21 -53 -14 -57 -25 -3 -27 -1 -27 37 0 46 10
51 41 20z m-111 -89 c13 -25 5 -40 -20 -40 -25 0 -51 27 -44 45 9 22 52 18 64
-5z m1570 -174 c0 -14 -4 -27 -9 -30 -15 -10 -41 5 -41 23 0 23 9 31 32 31 12
0 18 -7 18 -24z m-1812 -58 c13 -13 16 -47 6 -72 -4 -12 -11 -13 -24 -6 -24
13 -31 35 -20 65 11 28 20 31 38 13z m562 -129 c0 -5 -4 -9 -10 -9 -5 0 -10 7
-10 16 0 8 5 12 10 9 6 -3 10 -10 10 -16z m100 -29 c0 -20 -5 -30 -15 -30 -21
0 -30 27 -15 45 19 23 30 18 30 -15z m-123 -46 c-9 -9 -28 6 -21 18 4 6 10 6
17 -1 6 -6 8 -13 4 -17z m-190 -120 c-9 -9 -28 6 -21 18 4 6 10 6 17 -1 6 -6
8 -13 4 -17z m986 -126 c7 -21 -12 -48 -33 -48 -13 0 -20 7 -20 18 0 34 43 57
53 30z m14 -104 c6 -18 -53 -36 -66 -20 -7 9 -7 16 2 25 14 14 59 11 64 -5z"/>
<path d="M454 4022 c2 -4 -11 -18 -30 -31 -33 -23 -52 -60 -40 -79 12 -20 100
13 92 34 -3 8 0 11 8 8 17 -7 29 38 13 48 -9 6 -8 8 3 9 10 0 8 3 -5 9 -26 11
-48 12 -41 2z"/>
<path d="M1283 4013 c-4 -10 -27 -39 -52 -65 -85 -86 -96 -109 -71 -148 14
-22 76 42 95 100 8 25 26 62 40 82 29 43 30 48 10 48 -9 0 -19 -8 -22 -17z"/>
<path d="M8620 4019 c0 -5 5 -7 10 -4 6 3 10 8 10 11 0 2 -4 4 -10 4 -5 0 -10
-5 -10 -11z"/>
<path d="M11730 4010 c-28 -21 -25 -28 11 -32 20 -3 25 2 27 25 4 32 -4 33
-38 7z"/>
<path d="M8180 4010 c0 -5 5 -10 11 -10 5 0 7 5 4 10 -3 6 -8 10 -11 10 -2 0
-4 -4 -4 -10z"/>
<path d="M8785 3987 c-16 -38 -39 -67 -50 -67 -5 0 -19 10 -32 22 -13 12 -23
16 -23 9 0 -15 25 -41 38 -41 6 0 12 -6 14 -12 3 -8 9 -4 17 10 10 18 15 20
32 12 11 -6 17 -15 14 -20 -3 -6 -2 -18 4 -27 8 -14 9 -10 7 17 -2 31 0 35 21
36 33 2 66 37 50 53 -8 8 -8 11 1 11 6 0 9 7 5 16 -4 10 -9 12 -15 6 -6 -6
-22 -7 -39 -2 -27 8 -31 6 -44 -23z m65 -32 c0 -1 -11 -5 -25 -7 -13 -3 -22
-2 -20 3 3 4 0 9 -7 11 -6 2 -8 9 -4 16 5 9 13 8 32 -4 13 -9 24 -18 24 -19z"/>
<path d="M8550 3979 c0 -5 5 -9 10 -9 6 0 10 -7 10 -15 0 -9 -6 -12 -17 -8
-14 5 -13 1 4 -16 12 -11 32 -20 45 -20 15 1 17 3 7 6 -10 2 -16 14 -16 29 0
23 0 23 14 7 8 -10 12 -12 8 -5 -4 7 -2 19 4 26 9 11 4 14 -29 14 -22 0 -40
-3 -40 -9z"/>
<path d="M8935 3981 c-3 -5 -1 -12 5 -16 12 -7 30 2 30 16 0 12 -27 12 -35 0z"/>
<path d="M8640 3973 c0 -4 5 -15 10 -23 8 -13 10 -13 10 2 0 9 -4 20 -10 23
-5 3 -10 3 -10 -2z"/>
<path d="M7707 3953 c-4 -3 -7 -11 -7 -17 0 -6 5 -5 12 2 6 6 9 14 7 17 -3 3
-9 2 -12 -2z"/>
<path d="M9016 3948 c3 -4 14 -8 24 -8 10 0 21 4 24 8 3 5 -8 9 -24 9 -16 0
-27 -4 -24 -9z"/>
<path d="M6770 3940 c0 -5 7 -7 15 -4 8 4 15 8 15 10 0 2 -7 4 -15 4 -8 0 -15
-4 -15 -10z"/>
<path d="M6550 3930 c-12 -8 -11 -10 8 -10 12 0 22 5 22 10 0 13 -11 13 -30 0z"/>
<path d="M6713 3918 c-39 -23 -42 -39 -9 -54 22 -10 25 -8 37 28 7 21 10 40 8
42 -2 1 -19 -6 -36 -16z"/>
<path d="M8496 3891 c-18 -19 -24 -31 -17 -35 6 -4 11 -1 11 8 0 9 4 16 8 16
5 0 19 9 32 20 14 12 18 20 9 19 -8 0 -27 -13 -43 -28z"/>
<path d="M9275 3910 c3 -5 8 -10 11 -10 2 0 4 5 4 10 0 6 -5 10 -11 10 -5 0
-7 -4 -4 -10z"/>
<path d="M8820 3895 c0 -8 5 -15 10 -15 6 0 10 7 10 15 0 8 -4 15 -10 15 -5 0
-10 -7 -10 -15z"/>
<path d="M8757 3886 c-3 -8 1 -17 10 -21 13 -4 14 -8 5 -17 -7 -7 -12 -17 -12
-22 0 -6 7 0 16 12 9 13 13 31 9 42 -7 23 -21 26 -28 6z"/>
<path d="M8678 3863 c6 -2 18 -2 25 0 6 3 1 5 -13 5 -14 0 -19 -2 -12 -5z"/>
<path d="M8980 3859 c0 -5 5 -7 10 -4 6 3 10 8 10 11 0 2 -4 4 -10 4 -5 0 -10
-5 -10 -11z"/>
<path d="M8616 3825 c-3 -8 -1 -15 4 -15 6 0 10 7 10 15 0 8 -2 15 -4 15 -2 0
-6 -7 -10 -15z"/>
<path d="M8690 3831 c0 -5 5 -13 10 -16 6 -3 10 -2 10 4 0 5 -4 13 -10 16 -5
3 -10 2 -10 -4z"/>
<path d="M8723 3820 c-1 -11 1 -22 5 -24 4 -2 8 7 8 20 1 13 -1 24 -5 24 -4 0
-7 -9 -8 -20z"/>
<path d="M2596 3808 c-21 -30 -9 -44 15 -17 10 12 19 26 19 31 0 15 -19 8 -34
-14z"/>
<path d="M8450 3809 c0 -5 5 -7 10 -4 6 3 10 8 10 11 0 2 -4 4 -10 4 -5 0 -10
-5 -10 -11z"/>
<path d="M8656 3807 c-18 -13 -18 -15 13 -19 17 -3 34 -1 37 4 3 4 -1 8 -10 8
-8 0 -16 5 -18 10 -2 7 -10 5 -22 -3z"/>
<path d="M6800 3796 c0 -2 7 -6 15 -10 8 -3 15 -1 15 4 0 6 -7 10 -15 10 -8 0
-15 -2 -15 -4z"/>
<path d="M8050 3790 c0 -5 5 -10 11 -10 5 0 7 5 4 10 -3 6 -8 10 -11 10 -2 0
-4 -4 -4 -10z"/>
<path d="M8560 3792 c0 -5 7 -13 16 -16 10 -4 14 -1 12 6 -5 15 -28 23 -28 10z"/>
<path d="M8635 3761 c-10 -17 9 -20 30 -5 18 14 18 14 -2 14 -12 0 -24 -4 -28
-9z"/>
<path d="M7762 3748 c-7 -7 -18 -13 -25 -13 -7 0 -12 -7 -12 -15 0 -10 10 -15
30 -16 17 -1 37 -4 46 -8 10 -4 20 -3 24 3 3 6 -2 11 -13 11 -23 0 -46 25 -37
40 9 14 2 13 -13 -2z"/>
<path d="M8390 3725 c7 -9 15 -13 17 -11 7 7 -7 26 -19 26 -6 0 -6 -6 2 -15z"/>
<path d="M8360 3716 c0 -2 7 -7 16 -10 8 -3 12 -2 9 4 -6 10 -25 14 -25 6z"/>
<path d="M6770 3690 c0 -13 7 -20 20 -20 23 0 26 10 8 28 -18 18 -28 15 -28
-8z"/>
<path d="M8465 3683 c-18 -16 -23 -24 -11 -20 13 5 17 3 13 -7 -3 -8 2 -16 14
-19 11 -3 19 0 19 7 0 6 10 20 22 30 22 19 22 20 3 27 -28 11 -27 11 -60 -18z"/>
<path d="M6876 3683 c-6 -14 -5 -15 5 -6 7 7 10 15 7 18 -3 3 -9 -2 -12 -12z"/>
<path d="M8357 3686 c-4 -10 -1 -16 8 -16 8 0 15 -4 15 -10 0 -5 -4 -10 -10
-10 -5 0 -10 -4 -10 -10 0 -5 12 -10 28 -9 15 0 21 3 14 6 -10 4 -10 8 -1 19
9 11 8 14 -4 14 -9 0 -20 7 -25 16 -8 15 -10 15 -15 0z"/>
<path d="M7250 3658 c0 -19 2 -20 10 -8 13 19 13 30 0 30 -5 0 -10 -10 -10
-22z"/>
<path d="M8176 3664 c-8 -22 -7 -34 3 -34 12 0 21 39 11 45 -4 3 -11 -2 -14
-11z"/>
<path d="M6210 3659 c-8 -5 -58 -21 -110 -35 -52 -14 -113 -30 -135 -36 -68
-18 -71 -26 -37 -104 62 -141 77 -209 76 -334 -1 -122 -19 -203 -70 -318 -26
-60 -30 -75 -11 -51 7 9 28 19 47 22 71 11 216 55 250 77 38 24 191 110 255
144 39 21 40 23 37 66 -5 70 15 289 32 350 12 45 13 66 3 117 -6 35 -17 65
-23 67 -6 2 -41 -14 -78 -35 -76 -46 -80 -45 -138 31 -35 46 -68 59 -98 39z"/>
<path d="M6807 3663 c-12 -11 -7 -23 9 -23 10 0 14 -6 10 -15 -3 -8 -1 -15 3
-15 17 0 21 31 7 46 -16 16 -20 17 -29 7z"/>
<path d="M7384 3641 c0 -12 11 -24 26 -31 22 -9 23 -9 8 3 -10 8 -18 22 -18
31 0 9 -4 16 -8 16 -4 0 -8 -9 -8 -19z"/>
<path d="M7911 3644 c0 -11 3 -14 6 -6 3 7 2 16 -1 19 -3 4 -6 -2 -5 -13z"/>
<path d="M7460 3631 c14 -27 30 -36 30 -17 0 9 -5 16 -11 16 -5 0 -7 5 -4 10
3 6 -1 10 -10 10 -12 0 -14 -4 -5 -19z"/>
<path d="M7346 3625 c-3 -9 -6 -22 -5 -28 0 -7 5 -1 10 12 5 13 8 26 5 28 -2
2 -6 -3 -10 -12z"/>
<path d="M8006 3632 c-3 -5 1 -9 9 -9 8 0 12 4 9 9 -3 4 -7 8 -9 8 -2 0 -6 -4
-9 -8z"/>
<path d="M8332 3631 c-11 -6 -9 -9 6 -13 15 -4 19 -2 15 8 -6 16 -4 16 -21 5z"/>
<path d="M1193 3615 c-7 -8 -13 -21 -13 -30 0 -8 -6 -15 -13 -15 -7 0 -23 -13
-35 -30 -27 -35 -30 -59 -5 -39 9 8 19 13 22 13 18 -4 81 74 81 101 0 19 -21
19 -37 0z"/>
<path d="M8432 3613 c2 -10 11 -19 21 -21 16 -3 17 -1 5 17 -16 25 -31 27 -26
4z"/>
<path d="M7506 3603 c-3 -7 -1 -13 4 -13 5 0 21 -12 36 -26 16 -17 19 -24 9
-20 -11 4 -15 2 -12 -6 2 -7 14 -12 26 -11 11 2 21 -2 21 -7 0 -6 6 -9 13 -7
14 2 30 37 21 46 -4 3 -9 0 -11 -6 -7 -21 -25 -15 -18 6 4 15 1 18 -18 14 -19
-4 -26 0 -30 19 -7 26 -33 33 -41 11z"/>
<path d="M8074 3609 c-5 -8 -2 -10 8 -6 9 3 21 0 28 -6 10 -9 11 -9 8 3 -6 19
-34 25 -44 9z"/>
<path d="M7370 3581 c0 -20 27 -48 36 -38 4 3 4 18 0 32 -7 29 -36 34 -36 6z"/>
<path d="M7433 3585 c-18 -19 -16 -35 3 -35 8 0 13 -4 10 -9 -9 -14 42 0 55
15 9 11 8 14 -4 14 -9 0 -19 -4 -22 -10 -9 -15 -25 -12 -25 6 0 8 5 12 10 9 6
-3 10 1 10 9 0 20 -21 20 -37 1z"/>
<path d="M8216 3571 c-4 -7 -5 -15 -2 -18 9 -9 19 4 14 18 -4 11 -6 11 -12 0z"/>
<path d="M7046 3545 c-8 -8 -25 -15 -38 -15 -38 0 -52 -14 -39 -38 25 -46 10
-58 -97 -82 -60 -14 -68 -21 -44 -43 9 -9 50 -47 89 -85 40 -39 85 -73 99 -76
15 -4 39 -16 52 -27 14 -10 30 -19 37 -19 7 0 34 -9 59 -21 52 -23 76 -20 76
9 0 13 -9 21 -27 25 -16 3 -38 15 -50 26 -12 12 -28 21 -35 22 -7 0 -1 5 13
10 19 7 27 17 27 35 0 23 -4 25 -27 19 -14 -4 -48 -20 -75 -36 -26 -17 -50
-28 -53 -26 -10 11 53 116 69 117 9 0 17 8 17 18 0 9 4 37 9 62 11 62 7 106
-11 125 -19 19 -32 19 -51 0z"/>
<path d="M8048 3553 c-10 -2 -18 -9 -18 -15 0 -6 -9 -8 -21 -5 -15 4 -19 1
-17 -11 4 -23 34 -27 53 -8 9 8 22 13 30 10 8 -4 15 -1 15 5 0 6 -7 11 -16 11
-8 0 -12 5 -9 10 3 6 5 9 3 9 -2 -1 -11 -3 -20 -6z"/>
<path d="M7768 3513 c7 -3 16 -2 19 1 4 3 -2 6 -13 5 -11 0 -14 -3 -6 -6z"/>
<path d="M7495 3490 c-4 -6 -4 -10 -1 -10 2 0 11 -3 20 -6 9 -3 16 -2 16 4 0
14 -28 23 -35 12z"/>
<path d="M2837 3483 c-4 -3 -7 -19 -7 -35 0 -40 24 -31 28 10 3 30 -6 41 -21
25z"/>
<path d="M874 3359 c-3 -6 -1 -16 5 -22 8 -8 11 -5 11 11 0 24 -5 28 -16 11z"/>
<path d="M11767 3356 c-19 -19 -22 -43 -8 -65 6 -10 12 -4 21 23 15 46 10 64
-13 42z"/>
<path d="M3155 3306 c-31 -31 -23 -56 16 -56 32 0 48 21 41 56 -6 31 -26 31
-57 0z"/>
<path d="M11964 3269 c-4 -24 -19 -55 -35 -74 -34 -38 -38 -84 -11 -108 25
-22 29 -22 57 11 22 24 24 36 25 120 0 75 -3 92 -15 92 -10 0 -17 -14 -21 -41z"/>
<path d="M7210 3291 c-21 -6 -22 -8 -7 -14 9 -3 17 -10 16 -14 -4 -26 3 -33
27 -27 19 5 25 4 20 -5 -4 -6 -1 -11 8 -11 9 0 16 -5 16 -12 0 -8 5 -7 16 3
14 15 14 20 0 53 -16 38 -36 44 -96 27z"/>
<path d="M11294 3265 c-4 -8 -10 -13 -15 -10 -4 3 -13 -3 -18 -14 -9 -17 -7
-18 22 -16 18 2 35 3 40 4 4 1 7 12 7 26 0 28 -27 35 -36 10z"/>
<path d="M1661 3153 c-7 -8 -11 -16 -8 -19 2 -2 10 2 17 11 17 20 9 27 -9 8z"/>
<path d="M6960 3160 c0 -5 4 -10 9 -10 6 0 13 5 16 10 3 6 -1 10 -9 10 -9 0
-16 -4 -16 -10z"/>
<path d="M7715 3090 c3 -5 8 -10 11 -10 2 0 4 5 4 10 0 6 -5 10 -11 10 -5 0
-7 -4 -4 -10z"/>
<path d="M1805 3059 c-4 -6 -5 -12 -2 -15 2 -3 7 2 10 11 7 17 1 20 -8 4z"/>
<path d="M11655 3050 c-3 -11 -12 -26 -19 -33 -7 -7 -16 -31 -20 -55 -5 -35
-3 -44 10 -49 25 -9 64 40 64 80 0 66 -21 100 -35 57z"/>
<path d="M3173 2899 c-24 -24 -43 -47 -43 -51 0 -5 -4 -14 -10 -21 -55 -68
-62 -79 -57 -98 8 -32 -12 -139 -34 -180 -10 -20 -19 -55 -19 -78 0 -36 3 -41
23 -41 35 0 57 31 78 107 23 81 17 137 -12 130 -17 -5 -17 -3 -4 22 18 37 41
55 60 47 8 -3 15 -2 16 2 3 32 11 56 24 68 20 20 27 52 23 99 l-3 37 -42 -43z"/>
<path d="M8041 2901 c-19 -12 -10 -30 11 -22 10 3 14 11 10 18 -5 7 -13 9 -21
4z"/>
<path d="M9796 2892 c-3 -6 -22 -9 -41 -8 l-34 3 4 -53 c7 -92 29 -136 52
-105 11 13 14 14 22 2 5 -8 16 -11 24 -8 9 3 29 -8 51 -29 39 -38 56 -43 56
-15 0 10 9 29 19 43 18 22 18 26 4 56 -10 21 -13 40 -7 59 12 43 11 48 -16 50
-14 0 -48 4 -76 8 -32 5 -54 4 -58 -3z"/>
<path d="M6405 2830 c-16 -10 -41 -22 -56 -25 -14 -3 -45 -25 -68 -49 l-43
-44 21 -21 c26 -26 84 -28 111 -3 11 10 42 26 70 36 62 22 79 49 59 92 -18 36
-53 42 -94 14z"/>
<path d="M815 2820 c4 -6 11 -8 16 -5 14 9 11 15 -7 15 -8 0 -12 -5 -9 -10z"/>
<path d="M7968 2743 c7 -3 16 -2 19 1 4 3 -2 6 -13 5 -11 0 -14 -3 -6 -6z"/>
<path d="M9560 2729 c0 -5 5 -7 10 -4 6 3 10 8 10 11 0 2 -4 4 -10 4 -5 0 -10
-5 -10 -11z"/>
<path d="M9520 2710 c-9 -6 -10 -10 -3 -10 6 0 15 5 18 10 8 12 4 12 -15 0z"/>
<path d="M6120 2589 c-18 -15 -32 -19 -56 -14 -62 11 -78 0 -95 -65 -15 -58
-15 -58 9 -77 14 -10 32 -18 41 -19 31 -2 33 -4 21 -19 -15 -19 -7 -19 33 -1
18 7 48 19 67 26 54 20 100 58 100 83 0 12 -10 40 -23 62 -27 47 -59 55 -97
24z"/>
<path d="M6151 2380 c-40 -28 -79 -50 -85 -50 -20 0 -106 -65 -106 -80 1 -12
3 -12 14 3 19 24 26 21 26 -11 0 -36 16 -52 52 -52 15 0 28 -4 28 -10 0 -14
76 -13 103 1 33 18 37 28 37 102 0 37 3 67 8 67 4 0 8 18 9 40 2 22 -1 40 -5
40 -4 0 -40 -23 -81 -50z"/>
<path d="M977 2162 c-28 -29 -57 -99 -57 -138 0 -25 7 -29 27 -16 11 7 73 153
73 172 0 17 -15 11 -43 -18z"/>
<path d="M6227 2163 c-15 -14 -6 -24 16 -18 35 11 44 25 16 25 -14 0 -29 -3
-32 -7z"/>
<path d="M3373 2133 c-7 -3 -13 -18 -13 -34 0 -27 2 -29 28 -22 15 4 35 7 44
7 10 0 20 6 22 13 3 7 1 13 -4 13 -5 0 -7 6 -5 13 5 12 -46 19 -72 10z"/>
<path d="M901 1964 c0 -11 3 -14 6 -6 3 7 2 16 -1 19 -3 4 -6 -2 -5 -13z"/>
<path d="M3488 1955 c-3 -13 -2 -22 2 -20 12 8 49 -25 53 -48 4 -19 4 -19 6 5
0 15 -4 30 -10 33 -5 4 -8 12 -6 18 4 13 -16 37 -31 37 -5 0 -12 -11 -14 -25z"/>
<path d="M835 1895 c-104 -88 -115 -105 -71 -105 38 0 103 59 110 99 3 19 4
36 3 37 -1 1 -20 -13 -42 -31z"/>
<path d="M6107 1833 c-8 -12 27 -43 78 -68 33 -17 40 -25 40 -50 0 -22 5 -30
20 -32 11 -2 14 0 8 3 -20 9 -15 24 7 24 14 0 20 7 20 24 0 13 3 31 6 40 12
30 -161 88 -179 59z"/>
<path d="M934 1769 c-19 -22 -19 -22 4 -10 12 6 22 16 22 21 0 15 -5 12 -26
-11z"/>
<path d="M762 1563 c-7 -3 -19 -20 -26 -38 -21 -49 -114 -163 -147 -181 -33
-17 -37 -43 -11 -67 25 -23 29 -22 48 15 9 18 34 55 54 83 39 52 58 85 86 148
18 40 17 47 -4 40z"/>
<path d="M516 1472 c-14 -22 -28 -53 -32 -68 l-7 -27 31 28 c29 26 53 88 39
101 -3 3 -17 -12 -31 -34z"/>
<path d="M3672 1493 c-5 -10 -15 -36 -22 -58 -7 -22 -21 -56 -31 -75 -24 -45
-24 -48 5 -43 18 4 26 0 30 -15 8 -23 -25 -103 -58 -143 -19 -22 -23 -36 -19
-66 4 -32 -1 -45 -31 -85 -20 -26 -47 -51 -61 -54 -22 -5 -23 -10 -22 -64 1
-32 4 -55 7 -51 3 3 14 11 25 17 29 15 85 104 85 135 0 17 10 33 30 47 17 13
30 32 30 43 0 11 10 23 23 28 30 12 47 -21 28 -52 -12 -18 -11 -23 9 -39 32
-26 64 -20 68 13 2 15 12 35 23 45 18 16 19 16 19 0 0 -9 -11 -34 -25 -54 -14
-20 -21 -38 -15 -40 5 -2 10 -16 10 -31 0 -15 7 -36 15 -47 8 -10 15 -27 15
-37 0 -10 6 -20 14 -23 8 -3 12 -12 9 -20 -7 -18 17 -18 52 0 39 20 77 7 96
-34 14 -30 15 -38 2 -68 -8 -19 -16 -58 -18 -86 -3 -41 1 -55 17 -73 19 -20
21 -20 51 -5 18 8 40 20 51 25 23 11 38 -8 30 -38 -4 -16 -3 -17 5 -5 7 10 13
11 20 5 6 -6 3 -36 -8 -80 -10 -38 -16 -73 -14 -77 8 -15 43 -8 55 12 17 27
22 25 37 -15 10 -29 17 -35 32 -30 17 6 19 1 19 -64 0 -38 3 -76 6 -84 3 -8
-2 -22 -11 -31 -15 -15 -15 -17 -1 -32 20 -20 20 -23 -3 -74 -11 -24 -17 -49
-14 -57 4 -10 58 -13 276 -13 l271 0 -49 45 c-28 25 -53 49 -58 53 -4 4 -39
48 -78 97 -39 50 -82 94 -95 99 -13 6 -26 18 -30 28 -3 9 -16 26 -30 37 -13
10 -24 26 -24 34 0 9 -11 29 -25 44 -21 24 -24 26 -25 9 0 -33 -50 23 -94 106
-22 40 -63 102 -91 138 -29 36 -74 101 -99 144 -26 44 -64 100 -85 125 -45 56
-66 90 -126 206 -25 50 -63 122 -85 160 -40 69 -64 119 -81 163 -10 26 -25 28
-37 5z"/>
<path d="M8076 1403 c-26 -27 -34 -53 -18 -53 5 0 15 11 22 25 7 14 19 25 27
25 15 0 18 16 4 25 -6 3 -21 -7 -35 -22z"/>
<path d="M377 1292 c-10 -10 -17 -25 -17 -33 0 -8 -9 -25 -20 -39 -21 -26 -27
-60 -11 -60 11 0 61 62 61 74 0 4 9 19 20 33 11 14 20 30 20 34 0 16 -37 9
-53 -9z"/>
<path d="M501 1143 c-17 -37 2 -53 24 -20 16 24 14 47 -4 47 -4 0 -13 -12 -20
-27z"/>
<path d="M3036 1112 c-3 -9 -9 -23 -12 -31 -10 -21 14 -4 26 19 6 11 6 21 1
24 -5 3 -11 -2 -15 -12z"/>
<path d="M1294 1015 c-30 -64 -42 -125 -25 -125 6 0 11 7 11 15 0 9 11 37 24
63 31 60 42 102 27 102 -7 0 -23 -25 -37 -55z"/>
<path d="M394 1015 c-3 -14 -10 -25 -15 -25 -5 0 -9 -6 -9 -14 0 -8 -11 -27
-24 -43 -13 -15 -33 -47 -45 -71 -21 -41 -23 -42 -43 -28 -29 20 -48 4 -48
-39 0 -18 -7 -52 -15 -75 -8 -24 -13 -45 -10 -48 3 -3 22 3 42 12 32 15 44 31
75 95 28 56 47 82 75 100 50 33 63 49 63 82 0 14 9 38 21 53 l20 26 -40 0
c-35 0 -41 -3 -47 -25z"/>
<path d="M604 986 c-4 -9 -4 -20 0 -23 3 -4 12 -1 18 5 9 9 9 15 0 24 -9 9
-13 7 -18 -6z"/>
<path d="M133 938 c-31 -32 -54 -66 -58 -85 -3 -18 -17 -41 -29 -51 -22 -16
-46 -53 -46 -67 0 -11 52 5 87 26 44 27 94 104 98 150 2 21 9 47 15 58 21 39
-14 23 -67 -31z"/>
<path d="M3427 790 c-19 -28 -21 -40 -7 -40 12 0 32 38 28 52 -3 7 -12 1 -21
-12z"/>
<path d="M404 725 c-8 -32 11 -58 26 -35 13 19 9 52 -7 57 -7 3 -15 -7 -19
-22z"/>
<path d="M2150 595 c0 -28 4 -44 10 -40 6 3 10 21 10 40 0 19 -4 37 -10 40 -6
4 -10 -12 -10 -40z"/>
<path d="M3737 633 c-2 -5 -7 -21 -11 -38 -6 -28 -5 -29 9 -11 8 11 15 28 15
38 0 19 -6 23 -13 11z"/>
<path d="M2727 568 c-15 -23 -27 -47 -27 -54 0 -6 -9 -23 -21 -38 -11 -15 -23
-40 -26 -56 -4 -27 -2 -30 24 -29 45 2 80 14 65 23 -6 4 -16 5 -21 2 -5 -3
-12 6 -15 20 -5 19 -1 33 12 48 10 11 27 40 37 64 26 60 7 74 -28 20z"/>
<path d="M4536 555 c4 -8 10 -15 15 -15 4 0 6 7 3 15 -4 8 -10 15 -15 15 -4 0
-6 -7 -3 -15z"/>
<path d="M3706 535 c-4 -16 -18 -53 -32 -82 -25 -53 -30 -78 -16 -69 14 9 64
144 60 163 -3 13 -6 9 -12 -12z"/>
<path d="M2850 531 c-6 -12 -7 -21 -1 -21 10 0 24 30 17 37 -2 3 -9 -5 -16
-16z"/>
<path d="M381 522 c-7 -13 -11 -30 -9 -38 3 -13 5 -13 23 -1 16 12 17 19 9 38
l-11 24 -12 -23z"/>
<path d="M4560 515 c0 -2 14 -26 30 -52 33 -51 40 -45 13 11 -13 29 -43 57
-43 41z"/>
<path d="M2795 430 c-3 -5 -1 -10 4 -10 6 0 11 5 11 10 0 6 -2 10 -4 10 -3 0
-8 -4 -11 -10z"/>
<path d="M1186 390 c-33 -37 -47 -70 -28 -70 17 0 82 71 82 89 0 31 -13 26
-54 -19z"/>
<path d="M1832 418 c-7 -7 -12 -21 -12 -32 -1 -12 -14 -37 -31 -56 -24 -28
-27 -36 -14 -38 9 -2 24 3 34 12 10 9 23 16 29 16 7 0 12 11 12 24 0 13 3 38
6 55 7 32 -3 40 -24 19z"/>
<path d="M2470 400 c0 -5 5 -10 10 -10 6 0 10 5 10 10 0 6 -4 10 -10 10 -5 0
-10 -4 -10 -10z"/>
<path d="M1915 389 c-4 -6 -4 -13 -1 -16 8 -8 36 5 36 17 0 13 -27 13 -35 -1z"/>
<path d="M2800 349 c0 -11 5 -17 10 -14 6 3 10 13 10 21 0 8 -4 14 -10 14 -5
0 -10 -9 -10 -21z"/>
<path d="M6855 310 c36 -36 61 -55 64 -48 2 7 10 17 18 21 7 5 11 13 7 18 -6
10 -125 69 -140 69 -4 0 18 -27 51 -60z"/>
<path d="M4650 345 c7 -9 15 -13 17 -11 7 7 -7 26 -19 26 -6 0 -6 -6 2 -15z"/>
<path d="M3608 303 c-31 -36 -78 -148 -82 -195 -1 -3 -4 -10 -8 -14 -5 -4 -8
-17 -8 -29 0 -11 -5 -26 -11 -32 -6 -6 -9 -17 -7 -23 7 -21 55 64 81 141 14
41 33 94 42 117 19 47 16 61 -7 35z"/>
<path d="M2393 225 c-6 -19 -9 -35 -6 -35 9 0 42 45 43 58 0 27 -27 10 -37
-23z"/>
<path d="M6930 221 c0 -10 27 -41 36 -41 7 0 -15 38 -26 45 -6 3 -10 2 -10 -4z"/>
<path d="M1717 213 c-4 -3 -7 -15 -7 -25 0 -26 24 -17 28 10 3 21 -8 29 -21
15z"/>
<path d="M2560 182 c0 -4 11 -9 25 -10 14 -1 25 3 25 8 0 6 -11 10 -25 10 -14
0 -25 -4 -25 -8z"/>
<path d="M4766 157 c3 -10 9 -15 12 -12 3 3 0 11 -7 18 -10 9 -11 8 -5 -6z"/>
<path d="M2048 130 c-14 -33 -18 -69 -8 -75 6 -3 13 0 16 8 8 21 0 86 -8 67z"/>
<path d="M2352 123 c-18 -32 -15 -51 4 -25 8 12 14 28 11 35 -2 7 -8 3 -15
-10z"/>
<path d="M2760 119 c0 -11 5 -17 10 -14 6 3 10 13 10 21 0 8 -4 14 -10 14 -5
0 -10 -9 -10 -21z"/>
<path d="M2510 94 c-12 -19 -20 -38 -16 -41 8 -9 13 -3 31 40 19 47 13 47 -15
1z"/>
<path d="M1646 94 c-4 -10 -1 -14 6 -12 15 5 23 28 10 28 -5 0 -13 -7 -16 -16z"/>
<path d="M126 83 c-6 -16 10 -63 22 -63 15 0 32 24 32 46 0 25 -45 40 -54 17z"/>
<path d="M3630 58 c1 -31 1 -32 15 -13 17 21 15 37 -3 43 -8 2 -12 -8 -12 -30z"/>
<path d="M6680 20 c0 -16 7 -20 38 -20 l37 0 -30 20 c-38 25 -45 25 -45 0z"/>
<path d="M2450 16 c0 -9 5 -16 10 -16 6 0 10 4 10 9 0 6 -4 13 -10 16 -5 3
-10 -1 -10 -9z"/>
<path d="M3680 15 c0 -8 5 -15 10 -15 6 0 10 7 10 15 0 8 -4 15 -10 15 -5 0
-10 -7 -10 -15z"/>
</g>
</svg>
