<?xml version="1.0" standalone="no"?>
<!DOCTYPE svg PUBLIC "-//W3C//DTD SVG 20010904//EN"
 "http://www.w3.org/TR/2001/REC-SVG-20010904/DTD/svg10.dtd">
<svg version="1.0" xmlns="http://www.w3.org/2000/svg"
 width="200.000000pt" height="60.000000pt" viewBox="0 0 200.000000 60.000000"
 preserveAspectRatio="xMidYMid meet">

<g transform="translate(0.000000,60.000000) scale(0.100000,-0.100000)"
fill="#000000" stroke="none">
<path d="M100 310 l0 -200 45 0 45 0 0 75 0 75 30 0 c28 0 33 -7 67 -75 l37
-75 48 0 48 0 -41 83 -41 83 31 31 c26 27 31 39 31 80 0 96 -43 123 -195 123
l-105 0 0 -200z m200 115 c16 -19 16 -61 0 -80 -8 -10 -30 -15 -61 -15 l-49 0
0 55 0 55 49 0 c31 0 53 -5 61 -15z"/>
<path d="M555 410 c-77 -17 -108 -61 -108 -151 0 -99 47 -149 141 -149 65 0
105 27 127 84 48 126 -39 244 -160 216z m65 -80 c37 -37 23 -145 -20 -150 -49
-7 -70 18 -70 81 0 51 23 89 55 89 8 0 24 -9 35 -20z"/>
<path d="M1142 410 c-65 -15 -102 -73 -102 -157 0 -58 26 -105 71 -129 42 -21
140 -16 169 11 24 21 24 24 5 49 -14 18 -16 18 -51 1 -34 -16 -39 -16 -70 -1
-19 8 -34 22 -34 31 0 12 16 15 90 15 l90 0 0 40 c0 105 -71 164 -168 140z
m72 -82 c24 -34 20 -38 -34 -38 -54 0 -62 10 -33 42 22 24 49 23 67 -4z"/>
<path d="M1458 406 c-16 -8 -28 -11 -28 -5 0 5 -18 9 -40 9 l-40 0 0 -150 0
-150 40 0 40 0 0 91 c0 110 8 129 56 129 l35 0 -3 42 c-3 48 -18 56 -60 34z"/>
<path d="M1630 409 c-41 -9 -80 -50 -80 -84 0 -37 40 -73 100 -93 43 -13 55
-22 55 -37 0 -30 -59 -34 -77 -6 -9 15 -23 21 -50 21 -49 0 -50 -20 -4 -66 31
-31 39 -34 92 -34 74 0 119 25 129 70 10 46 -19 80 -88 105 -73 27 -89 41 -63
61 26 18 32 18 56 -6 13 -13 33 -20 59 -20 l40 0 -11 30 c-16 48 -88 75 -158
59z"/>
<path d="M792 259 l50 -150 41 3 40 3 44 130 c24 72 46 138 49 148 5 14 -1 17
-39 17 l-45 0 -23 -90 c-13 -49 -26 -86 -30 -82 -5 7 -15 38 -39 130 -11 41
-11 42 -55 42 l-43 0 50 -151z"/>
<path d="M1862 175 c-21 -32 -3 -65 34 -65 31 0 53 42 34 65 -13 16 -58 17
-68 0z"/>
</g>
</svg>
