<?xml version="1.0" standalone="no"?>
<!DOCTYPE svg PUBLIC "-//W3C//DTD SVG 20010904//EN"
 "http://www.w3.org/TR/2001/REC-SVG-20010904/DTD/svg10.dtd">
<svg version="1.0" xmlns="http://www.w3.org/2000/svg"
 width="24.000000pt" height="24.000000pt" viewBox="0 0 24.000000 24.000000"
 preserveAspectRatio="xMidYMid meet">

<g transform="translate(0.000000,24.000000) scale(0.100000,-0.100000)"
fill="#000000" stroke="none">
<path d="M47 202 c-22 -24 -21 -37 3 -87 13 -26 34 -49 59 -63 48 -27 62 -27
92 -3 l24 20 -27 27 c-22 23 -30 25 -42 15 -12 -10 -19 -8 -36 9 -17 17 -19
24 -9 36 10 12 7 19 -11 39 -28 30 -32 30 -53 7z m36 -38 c-5 -43 31 -78 82
-79 11 0 20 -7 20 -15 0 -23 -36 -23 -73 0 -36 22 -68 79 -58 105 8 22 32 13
29 -11z"/>
</g>
</svg>
