<?xml version="1.0" standalone="no"?>
<!DOCTYPE svg PUBLIC "-//W3C//DTD SVG 20010904//EN"
 "http://www.w3.org/TR/2001/REC-SVG-20010904/DTD/svg10.dtd">
<svg version="1.0" xmlns="http://www.w3.org/2000/svg"
 width="24.000000pt" height="24.000000pt" viewBox="0 0 24.000000 24.000000"
 preserveAspectRatio="xMidYMid meet">

<g transform="translate(0.000000,24.000000) scale(0.100000,-0.100000)"
fill="#000000" stroke="none">
<path d="M48 194 c-12 -13 -14 -23 -6 -54 12 -47 51 -85 100 -98 31 -9 39 -7
54 9 16 18 16 20 -1 39 -12 13 -25 17 -44 14 -33 -7 -56 16 -48 48 4 14 0 29
-10 40 -20 22 -24 22 -45 2z m39 -5 c7 -7 9 -24 7 -39 -7 -35 39 -78 63 -58
11 9 18 8 30 -4 34 -35 -22 -51 -77 -23 -33 17 -60 61 -60 98 0 36 16 47 37
26z"/>
</g>
</svg>
