<?xml version="1.0" standalone="no"?>
<!DOCTYPE svg PUBLIC "-//W3C//DTD SVG 20010904//EN"
 "http://www.w3.org/TR/2001/REC-SVG-20010904/DTD/svg10.dtd">
<svg version="1.0" xmlns="http://www.w3.org/2000/svg"
 width="24.000000pt" height="24.000000pt" viewBox="0 0 24.000000 24.000000"
 preserveAspectRatio="xMidYMid meet">

<g transform="translate(0.000000,24.000000) scale(0.100000,-0.100000)"
fill="#000000" stroke="none">
<path d="M84 210 c-32 -13 -64 -59 -64 -92 0 -21 11 -41 35 -65 32 -32 40 -35
73 -30 47 8 92 55 92 98 0 22 -10 41 -34 65 -34 34 -61 41 -102 24z m91 -36
c14 -15 25 -39 25 -54 0 -30 -24 -58 -35 -40 -8 13 -82 13 -90 0 -11 -18 -35
10 -35 40 0 37 44 80 82 80 18 0 38 -10 53 -26z m-20 -119 c0 -12 -40 -19 -61
-11 -9 3 -12 11 -9 16 8 14 70 9 70 -5z"/>
<path d="M90 165 c-15 -18 -10 -45 13 -59 34 -22 73 27 47 59 -16 19 -44 19
-60 0z m46 -16 c10 -17 -13 -36 -27 -22 -12 12 -4 33 11 33 5 0 12 -5 16 -11z"/>
</g>
</svg>
